<svg width="600" height="37" viewBox="0 0 600 37" fill="none" xmlns="http://www.w3.org/2000/svg">
<path d="M9.03711 3.40625L14.75 21.2129L20.4453 3.40625H28.5664V29H22.3789V23.0234L22.9766 10.7891L16.7891 29H12.7109L6.50586 10.7715L7.10352 23.0234V29H0.933594V3.40625H9.03711ZM38.5859 15.2012H41.627C43.3848 15.2012 44.9316 15.4883 46.2676 16.0625C47.6035 16.6367 48.623 17.4512 49.3262 18.5059C50.0293 19.5605 50.3809 20.7852 50.3809 22.1797C50.3809 24.2305 49.584 25.8828 47.9902 27.1367C46.4082 28.3789 44.2461 29 41.5039 29H32.627V9.98047H38.5859V15.2012ZM59.1523 29H53.1934V9.98047H59.1523V29ZM38.5859 19.7539V24.4648H41.5918C42.4941 24.4648 43.1973 24.2598 43.7012 23.8496C44.2168 23.4277 44.4746 22.8594 44.4746 22.1445C44.4746 21.4414 44.2461 20.8672 43.7891 20.4219C43.332 19.9766 42.5996 19.7539 41.5918 19.7539H38.5859ZM88.8242 29H82.8828V21.9512H77.6973V29H71.7734V9.98047H77.6973V17.3984H82.8828V9.98047H88.8242V29ZM101.27 29.3516C98.3516 29.3516 95.9902 28.4844 94.1855 26.75C92.3809 25.0039 91.4785 22.7363 91.4785 19.9473V19.4551C91.4785 17.5098 91.8359 15.793 92.5508 14.3047C93.2773 12.8164 94.332 11.668 95.7148 10.8594C97.0977 10.0391 98.7383 9.62891 100.637 9.62891C103.309 9.62891 105.418 10.4609 106.965 12.125C108.512 13.7773 109.285 16.0859 109.285 19.0508V21.3535H97.5078C97.7188 22.4199 98.1816 23.2578 98.8965 23.8672C99.6113 24.4766 100.537 24.7812 101.674 24.7812C103.549 24.7812 105.014 24.125 106.068 22.8125L108.775 26.0117C108.037 27.0312 106.988 27.8457 105.629 28.4551C104.281 29.0527 102.828 29.3516 101.27 29.3516ZM100.602 14.1992C98.8672 14.1992 97.8359 15.3477 97.5078 17.6445H103.484V17.1875C103.508 16.2383 103.268 15.5059 102.764 14.9902C102.26 14.4629 101.539 14.1992 100.602 14.1992ZM137.656 29H131.697V14.5508H126.459V29H120.535V9.98047H137.656V29ZM140.082 19.3145C140.082 17.416 140.451 15.7285 141.189 14.252C141.928 12.7637 142.988 11.6211 144.371 10.8242C145.754 10.0273 147.377 9.62891 149.24 9.62891C152.088 9.62891 154.332 10.5137 155.973 12.2832C157.613 14.041 158.434 16.4375 158.434 19.4727V19.6836C158.434 22.6484 157.607 25.0039 155.955 26.75C154.314 28.4844 152.088 29.3516 149.275 29.3516C146.568 29.3516 144.395 28.543 142.754 26.9258C141.113 25.2969 140.229 23.0938 140.1 20.3164L140.082 19.3145ZM146.006 19.6836C146.006 21.4414 146.281 22.7305 146.832 23.5508C147.383 24.3711 148.197 24.7812 149.275 24.7812C151.385 24.7812 152.463 23.1582 152.51 19.9121V19.3145C152.51 15.9043 151.42 14.1992 149.24 14.1992C147.26 14.1992 146.188 15.6699 146.023 18.6113L146.006 19.6836ZM177.98 29H172.039V21.9512H166.854V29H160.93V9.98047H166.854V17.3984H172.039V9.98047H177.98V29ZM197.773 9.98047V29H191.867V22.707H189.582L186.225 29H180.318L184.221 21.7051C183.084 21.166 182.205 20.4512 181.584 19.5605C180.975 18.6699 180.67 17.6621 180.67 16.5371C180.67 14.6035 181.443 13.0391 182.99 11.8438C184.537 10.6367 186.553 10.0156 189.037 9.98047H197.773ZM186.594 16.748C186.594 17.3223 186.828 17.8203 187.297 18.2422C187.777 18.6523 188.393 18.8691 189.143 18.8926H191.867V14.5156H189.23C188.457 14.5156 187.824 14.7324 187.332 15.166C186.84 15.5996 186.594 16.127 186.594 16.748ZM218.533 9.98047V29H212.609V14.5508H209.059L208.742 20.3691C208.52 23.252 207.869 25.4082 206.791 26.8379C205.713 28.2676 204.113 28.9883 201.992 29H200.129L200.059 24.4648L200.674 24.3945C201.459 24.3008 202.039 23.7793 202.414 22.8301C202.801 21.8691 203.047 20.4219 203.152 18.4883L203.521 9.98047H218.533ZM232.824 9.98047H238.766V29H232.824V17.9258L227.604 29H221.645V9.98047H227.604V21.0195L232.824 9.98047ZM250.156 19.3145C250.156 17.416 250.525 15.7285 251.264 14.252C252.002 12.7637 253.062 11.6211 254.445 10.8242C255.828 10.0273 257.451 9.62891 259.314 9.62891C262.162 9.62891 264.406 10.5137 266.047 12.2832C267.688 14.041 268.508 16.4375 268.508 19.4727V19.6836C268.508 22.6484 267.682 25.0039 266.029 26.75C264.389 28.4844 262.162 29.3516 259.35 29.3516C256.643 29.3516 254.469 28.543 252.828 26.9258C251.188 25.2969 250.303 23.0938 250.174 20.3164L250.156 19.3145ZM256.08 19.6836C256.08 21.4414 256.355 22.7305 256.906 23.5508C257.457 24.3711 258.271 24.7812 259.35 24.7812C261.459 24.7812 262.537 23.1582 262.584 19.9121V19.3145C262.584 15.9043 261.494 14.1992 259.314 14.1992C257.334 14.1992 256.262 15.6699 256.098 18.6113L256.08 19.6836ZM296.984 29H291.025V23.2871C290.346 23.4043 289.76 23.4629 289.268 23.4629C286.139 23.4629 283.783 22.8594 282.201 21.6523C280.631 20.4336 279.84 18.6113 279.828 16.1855V9.98047H285.752V16.2383C285.764 17.2695 286.01 17.9727 286.49 18.3477C286.971 18.7109 287.896 18.8926 289.268 18.8926C289.842 18.8926 290.428 18.8398 291.025 18.7344V9.98047H296.984V29ZM309.359 29.3516C306.441 29.3516 304.08 28.4844 302.275 26.75C300.471 25.0039 299.568 22.7363 299.568 19.9473V19.4551C299.568 17.5098 299.926 15.793 300.641 14.3047C301.367 12.8164 302.422 11.668 303.805 10.8594C305.188 10.0391 306.828 9.62891 308.727 9.62891C311.398 9.62891 313.508 10.4609 315.055 12.125C316.602 13.7773 317.375 16.0859 317.375 19.0508V21.3535H305.598C305.809 22.4199 306.271 23.2578 306.986 23.8672C307.701 24.4766 308.627 24.7812 309.764 24.7812C311.639 24.7812 313.104 24.125 314.158 22.8125L316.865 26.0117C316.127 27.0312 315.078 27.8457 313.719 28.4551C312.371 29.0527 310.918 29.3516 309.359 29.3516ZM308.691 14.1992C306.957 14.1992 305.926 15.3477 305.598 17.6445H311.574V17.1875C311.598 16.2383 311.357 15.5059 310.854 14.9902C310.35 14.4629 309.629 14.1992 308.691 14.1992ZM331.684 22.4609L335.99 9.98047H343.443V29H337.502V18.4531L333.67 29H329.732L326.111 19.0156V29H320.17V9.98047H327.447L331.684 22.4609ZM374.029 19.6309C374.029 22.584 373.361 24.9453 372.025 26.7148C370.701 28.4727 368.908 29.3516 366.646 29.3516C364.9 29.3516 363.465 28.7129 362.34 27.4355V36.3125H356.416V9.98047H361.953L362.129 11.7383C363.266 10.332 364.76 9.62891 366.611 9.62891C368.955 9.62891 370.777 10.4961 372.078 12.2305C373.379 13.9531 374.029 16.3262 374.029 19.3496V19.6309ZM368.105 19.2617C368.105 15.8867 367.121 14.1992 365.152 14.1992C363.746 14.1992 362.809 14.7031 362.34 15.7109V23.1992C362.855 24.2539 363.805 24.7812 365.188 24.7812C367.074 24.7812 368.047 23.1523 368.105 19.8945V19.2617ZM385.859 29.3516C382.941 29.3516 380.58 28.4844 378.775 26.75C376.971 25.0039 376.068 22.7363 376.068 19.9473V19.4551C376.068 17.5098 376.426 15.793 377.141 14.3047C377.867 12.8164 378.922 11.668 380.305 10.8594C381.688 10.0391 383.328 9.62891 385.227 9.62891C387.898 9.62891 390.008 10.4609 391.555 12.125C393.102 13.7773 393.875 16.0859 393.875 19.0508V21.3535H382.098C382.309 22.4199 382.771 23.2578 383.486 23.8672C384.201 24.4766 385.127 24.7812 386.264 24.7812C388.139 24.7812 389.604 24.125 390.658 22.8125L393.365 26.0117C392.627 27.0312 391.578 27.8457 390.219 28.4551C388.871 29.0527 387.418 29.3516 385.859 29.3516ZM385.191 14.1992C383.457 14.1992 382.426 15.3477 382.098 17.6445H388.074V17.1875C388.098 16.2383 387.857 15.5059 387.354 14.9902C386.85 14.4629 386.129 14.1992 385.191 14.1992ZM413.176 29H407.217V23.2871C406.537 23.4043 405.951 23.4629 405.459 23.4629C402.33 23.4629 399.975 22.8594 398.393 21.6523C396.822 20.4336 396.031 18.6113 396.02 16.1855V9.98047H401.943V16.2383C401.955 17.2695 402.201 17.9727 402.682 18.3477C403.162 18.7109 404.088 18.8926 405.459 18.8926C406.033 18.8926 406.619 18.8398 407.217 18.7344V9.98047H413.176V29ZM422.703 15.2012H425.744C427.502 15.2012 429.049 15.4883 430.385 16.0625C431.721 16.6367 432.74 17.4512 433.443 18.5059C434.146 19.5605 434.498 20.7852 434.498 22.1797C434.498 24.2305 433.701 25.8828 432.107 27.1367C430.525 28.3789 428.363 29 425.621 29H416.744V9.98047H422.703V15.2012ZM422.703 19.7539V24.4648H425.709C426.611 24.4648 427.314 24.2598 427.818 23.8496C428.334 23.4277 428.592 22.8594 428.592 22.1445C428.592 21.4414 428.363 20.8672 427.906 20.4219C427.449 19.9766 426.717 19.7539 425.709 19.7539H422.703ZM459.389 6.41211H447.189V3.37109H459.389V6.41211ZM462.395 3.40625H468.564L479.252 31.1973H473.047L462.395 3.40625ZM493.982 33.4121H478.109V29H493.982V33.4121ZM496.109 18.5938C496.109 15.7344 496.49 13.0742 497.252 10.6133C498.014 8.15234 499.062 6.06641 500.398 4.35547C501.746 2.64453 503.24 1.44922 504.881 0.769531L506.006 3.6875C504.365 4.89453 503.094 6.78125 502.191 9.34766C501.301 11.9023 500.85 14.9023 500.838 18.3477V19.1211C500.838 22.6484 501.283 25.707 502.174 28.2969C503.076 30.8867 504.354 32.7852 506.006 33.9922L504.881 36.9102C503.264 36.2539 501.77 35.0527 500.398 33.3066C499.039 31.5723 497.99 29.498 497.252 27.084C496.514 24.6699 496.133 22.1035 496.109 19.3848V18.5938ZM523.755 0.955998L519.255 2.432C520.335 4.664 522.315 9.884 522.999 12.188L527.535 10.604C526.851 8.264 524.655 2.72 523.755 0.955998ZM534.807 2.288C534.267 7.22 532.215 13.664 529.263 17.408C525.591 22.052 519.975 25.292 515.043 26.696L519.075 30.728C524.223 28.784 529.443 25.148 533.223 20.18C536.211 16.256 538.263 10.532 539.271 6.644C539.487 5.816 539.811 4.736 540.171 3.836L534.807 2.288ZM513.747 3.188L509.139 4.772C510.183 6.716 512.559 12.62 513.279 14.96L517.923 13.268C517.095 10.82 514.863 5.456 513.747 3.188ZM553.73 19.0859C553.73 21.8398 553.326 24.4531 552.518 26.9258C551.709 29.3984 550.59 31.5195 549.16 33.2891C547.742 35.0703 546.207 36.2773 544.555 36.9102L543.43 33.9922C545.059 32.7734 546.318 30.8984 547.209 28.3672C548.1 25.8359 548.562 22.9238 548.598 19.6309V18.5586C548.598 15.0312 548.146 11.9727 547.244 9.38281C546.354 6.79297 545.082 4.89453 543.43 3.6875L544.555 0.769531C546.195 1.41406 547.719 2.60938 549.125 4.35547C550.543 6.08984 551.656 8.18164 552.465 10.6309C553.285 13.0684 553.707 15.6289 553.73 18.3125V19.0859ZM571.291 33.4121H555.418V29H571.291V33.4121ZM575 31.1973H570.799L579.535 3.40625H583.754L575 31.1973ZM599.346 6.41211H587.146V3.37109H599.346V6.41211Z" fill="white"/>
</svg>
