<svg width="1280" height="48" viewBox="0 0 1280 48" fill="none" xmlns="http://www.w3.org/2000/svg">
<path d="M73.7344 16.168H67.8867V32H66.4453V16.168H60.6094V14.9375H73.7344V16.168ZM74.2266 25.4727C74.2266 24.2539 74.4609 23.1562 74.9297 22.1797C75.4062 21.2031 76.0742 20.4453 76.9336 19.9062C77.8008 19.3594 78.7812 19.0859 79.875 19.0859C81.5625 19.0859 82.9297 19.6797 83.9766 20.8672C85.0234 22.0469 85.5469 23.6133 85.5469 25.5664V25.8594C85.5469 27.0859 85.3086 28.1914 84.832 29.1758C84.3633 30.1523 83.6992 30.9062 82.8398 31.4375C81.9805 31.9688 81 32.2344 79.8984 32.2344C78.2188 32.2344 76.8516 31.6445 75.7969 30.4648C74.75 29.2773 74.2266 27.707 74.2266 25.7539V25.4727ZM75.6328 25.8594C75.6328 27.375 76.0234 28.6211 76.8047 29.5977C77.5938 30.5664 78.625 31.0508 79.8984 31.0508C81.1641 31.0508 82.1875 30.5664 82.9688 29.5977C83.7578 28.6211 84.1523 27.3359 84.1523 25.7422V25.4727C84.1523 24.5039 83.9727 23.6172 83.6133 22.8125C83.2539 22.0078 82.75 21.3867 82.1016 20.9492C81.4531 20.5039 80.7109 20.2812 79.875 20.2812C78.625 20.2812 77.6055 20.7734 76.8164 21.7578C76.0273 22.7344 75.6328 24.0156 75.6328 25.6016V25.8594ZM95.4727 30.1016L100.512 19.3203H102.246V32H100.84V21.5938L95.9648 32H94.9688L90 21.3594V32H88.6055V19.3203H90.4453L95.4727 30.1016ZM117.363 22.1562L122.168 14.9375H123.891L118.242 23.3516L124.066 32H122.332L117.363 24.5469L112.371 32H110.66L116.496 23.3516L110.836 14.9375H112.559L117.363 22.1562ZM130.77 20.2812C129.801 20.2812 128.992 20.5625 128.344 21.125C127.695 21.6797 127.371 22.3984 127.371 23.2812H126.012C126.012 22.5156 126.223 21.8125 126.645 21.1719C127.074 20.5312 127.66 20.0234 128.402 19.6484C129.145 19.2734 129.934 19.0859 130.77 19.0859C132.324 19.0859 133.594 19.6328 134.578 20.7266C135.562 21.8125 136.094 23.2383 136.172 25.0039L136.184 25.9062C136.184 27.125 135.957 28.2227 135.504 29.1992C135.051 30.168 134.418 30.918 133.605 31.4492C132.793 31.9727 131.852 32.2344 130.781 32.2344C129.391 32.2344 128.246 31.8164 127.348 30.9805C126.457 30.1367 126.012 29.0469 126.012 27.7109H127.371C127.371 28.7188 127.691 29.5273 128.332 30.1367C128.98 30.7461 129.797 31.0508 130.781 31.0508C131.953 31.0508 132.895 30.6133 133.605 29.7383C134.324 28.8633 134.711 27.6797 134.766 26.1875H129.035V25.0039H134.766C134.695 23.5742 134.305 22.4297 133.594 21.5703C132.891 20.7109 131.949 20.2812 130.77 20.2812ZM149.121 32H147.715V26.1875H140.883V32H139.477V19.3203H140.883V25.0039H147.715V19.3203H149.121V32ZM156.328 26.1875H154.383V32H152.965V19.3203H154.383V24.9453H156.305L160.957 19.3203H162.727L157.523 25.4727L163.301 32H161.449L156.328 26.1875ZM169.828 31.0508C170.805 31.0508 171.621 30.7773 172.277 30.2305C172.941 29.6758 173.301 28.9609 173.355 28.0859H174.703C174.664 28.8594 174.422 29.5664 173.977 30.207C173.531 30.8398 172.938 31.3359 172.195 31.6953C171.461 32.0547 170.672 32.2344 169.828 32.2344C168.164 32.2344 166.844 31.6562 165.867 30.5C164.898 29.3438 164.414 27.7891 164.414 25.8359V25.4141C164.414 24.1641 164.633 23.0586 165.07 22.0977C165.508 21.1367 166.133 20.3945 166.945 19.8711C167.766 19.3477 168.723 19.0859 169.816 19.0859C171.207 19.0859 172.352 19.5 173.25 20.3281C174.156 21.1562 174.641 22.2461 174.703 23.5977H173.355C173.293 22.6055 172.934 21.8047 172.277 21.1953C171.629 20.5859 170.809 20.2812 169.816 20.2812C168.551 20.2812 167.566 20.7383 166.863 21.6523C166.168 22.5664 165.82 23.8477 165.82 25.4961V25.9062C165.82 27.5234 166.168 28.7852 166.863 29.6914C167.566 30.5977 168.555 31.0508 169.828 31.0508Z" fill="white"/>
<path fill-rule="evenodd" clip-rule="evenodd" d="M32 22C32 27.5228 27.5228 32 22 32C16.4772 32 12 27.5228 12 22C12 16.4772 16.4772 12 22 12C27.5228 12 32 16.4772 32 22ZM30.4002 33.2009C28.0603 34.9585 25.1518 36 22 36C14.268 36 8 29.732 8 22C8 14.268 14.268 8 22 8C29.732 8 36 14.268 36 22C36 25.1519 34.9584 28.0605 33.2007 30.4004C33.2403 30.4302 33.2791 30.4617 33.317 30.4949L41.317 37.4949C42.1483 38.2222 42.2325 39.4858 41.5052 40.317C40.7778 41.1483 39.5143 41.2325 38.683 40.5052L30.683 33.5052C30.5764 33.4119 30.4821 33.3098 30.4002 33.2009Z" fill="white"/>
<path d="M1242.76 10.7573L1256 24M1256 24L1269.24 37.2426M1256 24L1269.24 10.7573M1256 24L1242.76 37.2426" stroke="white" stroke-opacity="0.4" stroke-width="4" stroke-linecap="round" stroke-linejoin="round"/>
</svg>
