<svg width="302" height="454" viewBox="0 0 302 454" fill="none" xmlns="http://www.w3.org/2000/svg">
<path d="M0 19.68C0 12.5059 0 8.91892 1.48432 6.21896C2.58134 4.22349 4.22349 2.58134 6.21896 1.48432C8.91892 0 12.5059 0 19.68 0H282.32C289.494 0 293.081 0 295.781 1.48432C297.777 2.58134 299.419 4.22349 300.516 6.21896C302 8.91892 302 12.5059 302 19.68V434.32C302 441.494 302 445.081 300.516 447.781C299.419 449.777 297.777 451.419 295.781 452.516C293.081 454 289.494 454 282.32 454H19.68C12.5059 454 8.91892 454 6.21896 452.516C4.22349 451.419 2.58134 449.777 1.48432 447.781C0 445.081 0 441.494 0 434.32V19.68Z" fill="white" fill-opacity="0.24"/>
</svg>
