<svg width="200" height="36" viewBox="0 0 200 36" fill="none" xmlns="http://www.w3.org/2000/svg">
<rect width="200" height="36" rx="4" fill="white" fill-opacity="0.8"/>
<path d="M24.2578 12.8594H18.7734V16.2656H21.6016C22.7891 16.2812 23.7161 16.5859 24.3828 17.1797C25.0495 17.7734 25.3828 18.5807 25.3828 19.6016C25.3828 20.6276 25.0469 21.4453 24.375 22.0547C23.7031 22.6641 22.7865 22.9792 21.625 23H17.2656V11.625H24.2578V12.8594ZM18.7734 17.5V21.7734H21.5156C22.2604 21.7734 22.8385 21.5755 23.25 21.1797C23.6667 20.7839 23.875 20.2526 23.875 19.5859C23.875 18.9453 23.6745 18.4401 23.2734 18.0703C22.8776 17.7005 22.3125 17.5104 21.5781 17.5H18.7734ZM32.4062 23C32.3229 22.8333 32.2552 22.5365 32.2031 22.1094C31.5312 22.8073 30.7292 23.1562 29.7969 23.1562C28.9635 23.1562 28.2786 22.9219 27.7422 22.4531C27.2109 21.9792 26.9453 21.3802 26.9453 20.6562C26.9453 19.776 27.2786 19.0938 27.9453 18.6094C28.6172 18.1198 29.5599 17.875 30.7734 17.875H32.1797V17.2109C32.1797 16.7057 32.0286 16.3047 31.7266 16.0078C31.4245 15.7057 30.9792 15.5547 30.3906 15.5547C29.875 15.5547 29.4427 15.6849 29.0938 15.9453C28.7448 16.2057 28.5703 16.5208 28.5703 16.8906H27.1172C27.1172 16.4688 27.2656 16.0625 27.5625 15.6719C27.8646 15.276 28.2708 14.9635 28.7812 14.7344C29.2969 14.5052 29.862 14.3906 30.4766 14.3906C31.4505 14.3906 32.2135 14.6354 32.7656 15.125C33.3177 15.6094 33.6042 16.2786 33.625 17.1328V21.0234C33.625 21.7995 33.724 22.4167 33.9219 22.875V23H32.4062ZM30.0078 21.8984C30.4609 21.8984 30.8906 21.7812 31.2969 21.5469C31.7031 21.3125 31.9974 21.0078 32.1797 20.6328V18.8984H31.0469C29.276 18.8984 28.3906 19.4167 28.3906 20.4531C28.3906 20.9062 28.5417 21.2604 28.8438 21.5156C29.1458 21.7708 29.5339 21.8984 30.0078 21.8984ZM42.7969 23H41.3516V19.3906H37.4688V23H36.0156V14.5469H37.4688V18.2109H41.3516V14.5469H42.7969V23ZM45.0547 21.8203L45.5547 21.2031C46.1172 20.474 46.4375 19.3802 46.5156 17.9219L46.6484 14.5469H52.0938V21.8203H53.1797V25.4844H51.7344V23H45.8359V25.4844H44.3906L44.3984 21.8203H45.0547ZM46.7656 21.8203H50.6484V15.8828H48.0469L47.9609 17.8984C47.8724 19.5807 47.474 20.888 46.7656 21.8203ZM60.25 14.5469H61.6953V23H60.25V16.8359L56.3516 23H54.9062V14.5469H56.3516V20.7188L60.25 14.5469ZM70.2969 15.7188H67.4609V23H66.0156V15.7188H63.2344V14.5469H70.2969V15.7188ZM74.4688 21.9766C74.9844 21.9766 75.4349 21.8203 75.8203 21.5078C76.2057 21.1953 76.4193 20.8047 76.4609 20.3359H77.8281C77.8021 20.8203 77.6354 21.2812 77.3281 21.7188C77.0208 22.1562 76.6094 22.5052 76.0938 22.7656C75.5833 23.026 75.0417 23.1562 74.4688 23.1562C73.3177 23.1562 72.401 22.7734 71.7188 22.0078C71.0417 21.237 70.7031 20.1849 70.7031 18.8516V18.6094C70.7031 17.7865 70.8542 17.0547 71.1562 16.4141C71.4583 15.7734 71.8906 15.276 72.4531 14.9219C73.0208 14.5677 73.6901 14.3906 74.4609 14.3906C75.4089 14.3906 76.1953 14.6745 76.8203 15.2422C77.4505 15.8099 77.7865 16.5469 77.8281 17.4531H76.4609C76.4193 16.9062 76.2109 16.4583 75.8359 16.1094C75.4661 15.7552 75.0078 15.5781 74.4609 15.5781C73.7266 15.5781 73.1562 15.8438 72.75 16.375C72.349 16.901 72.1484 17.6641 72.1484 18.6641V18.9375C72.1484 19.9115 72.349 20.6615 72.75 21.1875C73.151 21.7135 73.724 21.9766 74.4688 21.9766ZM82.0859 19.3984H81.0312V23H79.5781V14.5469H81.0312V18.125H81.9766L84.8203 14.5469H86.5703L83.2266 18.6094L86.8516 23H85.0156L82.0859 19.3984ZM93.5625 14.5469H95.0078V23H93.5625V16.8359L89.6641 23H88.2188V14.5469H89.6641V20.7188L93.5625 14.5469ZM102.797 14.5469H104.242V23H102.797V16.8359L98.8984 23H97.4531V14.5469H98.8984V20.7188L102.797 14.5469ZM103.188 11.4688C103.188 12.099 102.971 12.6068 102.539 12.9922C102.112 13.3724 101.549 13.5625 100.852 13.5625C100.154 13.5625 99.5885 13.3698 99.1562 12.9844C98.724 12.599 98.5078 12.0938 98.5078 11.4688H99.6875C99.6875 11.8333 99.7865 12.1198 99.9844 12.3281C100.182 12.5312 100.471 12.6328 100.852 12.6328C101.216 12.6328 101.5 12.5312 101.703 12.3281C101.911 12.125 102.016 11.8385 102.016 11.4688H103.188ZM117.445 23H116V15.7422H112.109V23H110.656V14.5469H117.445V23ZM123.273 23.1562C122.128 23.1562 121.195 22.7812 120.477 22.0312C119.758 21.276 119.398 20.2682 119.398 19.0078V18.7422C119.398 17.9036 119.557 17.1562 119.875 16.5C120.198 15.8385 120.646 15.3229 121.219 14.9531C121.797 14.5781 122.422 14.3906 123.094 14.3906C124.193 14.3906 125.047 14.7526 125.656 15.4766C126.266 16.2005 126.57 17.237 126.57 18.5859V19.1875H120.844C120.865 20.0208 121.107 20.6953 121.57 21.2109C122.039 21.7214 122.633 21.9766 123.352 21.9766C123.862 21.9766 124.294 21.8724 124.648 21.6641C125.003 21.4557 125.312 21.1797 125.578 20.8359L126.461 21.5234C125.753 22.612 124.69 23.1562 123.273 23.1562ZM123.094 15.5781C122.51 15.5781 122.021 15.7917 121.625 16.2188C121.229 16.6406 120.984 17.2344 120.891 18H125.125V17.8906C125.083 17.1562 124.885 16.5885 124.531 16.1875C124.177 15.7812 123.698 15.5781 123.094 15.5781ZM134.438 15.7188H131.602V23H130.156V15.7188H127.375V14.5469H134.438V15.7188ZM138.727 23.1562C137.581 23.1562 136.648 22.7812 135.93 22.0312C135.211 21.276 134.852 20.2682 134.852 19.0078V18.7422C134.852 17.9036 135.01 17.1562 135.328 16.5C135.651 15.8385 136.099 15.3229 136.672 14.9531C137.25 14.5781 137.875 14.3906 138.547 14.3906C139.646 14.3906 140.5 14.7526 141.109 15.4766C141.719 16.2005 142.023 17.237 142.023 18.5859V19.1875H136.297C136.318 20.0208 136.56 20.6953 137.023 21.2109C137.492 21.7214 138.086 21.9766 138.805 21.9766C139.315 21.9766 139.747 21.8724 140.102 21.6641C140.456 21.4557 140.766 21.1797 141.031 20.8359L141.914 21.5234C141.206 22.612 140.143 23.1562 138.727 23.1562ZM138.547 15.5781C137.964 15.5781 137.474 15.7917 137.078 16.2188C136.682 16.6406 136.438 17.2344 136.344 18H140.578V17.8906C140.536 17.1562 140.339 16.5885 139.984 16.1875C139.63 15.7812 139.151 15.5781 138.547 15.5781ZM150.844 18.8672C150.844 20.1536 150.549 21.1901 149.961 21.9766C149.372 22.763 148.576 23.1562 147.57 23.1562C146.544 23.1562 145.737 22.8307 145.148 22.1797V26.25H143.703V14.5469H145.023L145.094 15.4844C145.682 14.7552 146.5 14.3906 147.547 14.3906C148.562 14.3906 149.365 14.7734 149.953 15.5391C150.547 16.3047 150.844 17.3698 150.844 18.7344V18.8672ZM149.398 18.7031C149.398 17.75 149.195 16.9974 148.789 16.4453C148.383 15.8932 147.826 15.6172 147.117 15.6172C146.242 15.6172 145.586 16.0052 145.148 16.7812V20.8203C145.581 21.5911 146.242 21.9766 147.133 21.9766C147.826 21.9766 148.375 21.7031 148.781 21.1562C149.193 20.6042 149.398 19.7865 149.398 18.7031ZM156.398 15.0312C157.461 15.0312 158.31 15.388 158.945 16.1016C159.586 16.8099 159.906 17.7448 159.906 18.9062V19.0391C159.906 19.8359 159.753 20.5495 159.445 21.1797C159.138 21.8047 158.695 22.2917 158.117 22.6406C157.544 22.9844 156.883 23.1562 156.133 23.1562C154.997 23.1562 154.083 22.7786 153.391 22.0234C152.698 21.263 152.352 20.2448 152.352 18.9688V18.2656C152.352 16.4896 152.68 15.0781 153.336 14.0312C153.997 12.9844 154.971 12.3464 156.258 12.1172C156.987 11.987 157.479 11.8281 157.734 11.6406C157.99 11.4531 158.117 11.1953 158.117 10.8672H159.305C159.305 11.5182 159.156 12.026 158.859 12.3906C158.568 12.7552 158.099 13.013 157.453 13.1641L156.375 13.4062C155.516 13.6094 154.87 13.9531 154.438 14.4375C154.01 14.9167 153.732 15.5573 153.602 16.3594C154.367 15.474 155.299 15.0312 156.398 15.0312ZM156.117 16.2188C155.409 16.2188 154.846 16.4583 154.43 16.9375C154.013 17.4115 153.805 18.0703 153.805 18.9141V19.0391C153.805 19.9453 154.013 20.6641 154.43 21.1953C154.852 21.7214 155.419 21.9844 156.133 21.9844C156.852 21.9844 157.419 21.7188 157.836 21.1875C158.253 20.6562 158.461 19.8802 158.461 18.8594C158.461 18.0625 158.25 17.4245 157.828 16.9453C157.411 16.4609 156.841 16.2188 156.117 16.2188ZM164.297 20.8828L166.266 14.5469H167.812L164.414 24.3047C163.888 25.7109 163.052 26.4141 161.906 26.4141L161.633 26.3906L161.094 26.2891V25.1172L161.484 25.1484C161.974 25.1484 162.354 25.0495 162.625 24.8516C162.901 24.6536 163.128 24.2917 163.305 23.7656L163.625 22.9062L160.609 14.5469H162.188L164.297 20.8828ZM176.25 18.8672C176.25 20.1536 175.956 21.1901 175.367 21.9766C174.779 22.763 173.982 23.1562 172.977 23.1562C171.951 23.1562 171.143 22.8307 170.555 22.1797V26.25H169.109V14.5469H170.43L170.5 15.4844C171.089 14.7552 171.906 14.3906 172.953 14.3906C173.969 14.3906 174.771 14.7734 175.359 15.5391C175.953 16.3047 176.25 17.3698 176.25 18.7344V18.8672ZM174.805 18.7031C174.805 17.75 174.602 16.9974 174.195 16.4453C173.789 15.8932 173.232 15.6172 172.523 15.6172C171.648 15.6172 170.992 16.0052 170.555 16.7812V20.8203C170.987 21.5911 171.648 21.9766 172.539 21.9766C173.232 21.9766 173.781 21.7031 174.188 21.1562C174.599 20.6042 174.805 19.7865 174.805 18.7031ZM183.555 15.7422H179.656V23H178.203V14.5469H183.555V15.7422Z" fill="black" fill-opacity="0.8"/>
</svg>
