<svg width="239" height="36" viewBox="0 0 239 36" fill="none" xmlns="http://www.w3.org/2000/svg">
<rect width="239" height="36" rx="4" fill="white" fill-opacity="0.8"/>
<path d="M24.2578 12.8594H18.7734V16.2656H21.6016C22.7891 16.2812 23.7161 16.5859 24.3828 17.1797C25.0495 17.7734 25.3828 18.5807 25.3828 19.6016C25.3828 20.6276 25.0469 21.4453 24.375 22.0547C23.7031 22.6641 22.7865 22.9792 21.625 23H17.2656V11.625H24.2578V12.8594ZM18.7734 17.5V21.7734H21.5156C22.2604 21.7734 22.8385 21.5755 23.25 21.1797C23.6667 20.7839 23.875 20.2526 23.875 19.5859C23.875 18.9453 23.6745 18.4401 23.2734 18.0703C22.8776 17.7005 22.3125 17.5104 21.5781 17.5H18.7734ZM30.6953 23.1562C29.5495 23.1562 28.6172 22.7812 27.8984 22.0312C27.1797 21.276 26.8203 20.2682 26.8203 19.0078V18.7422C26.8203 17.9036 26.9792 17.1562 27.2969 16.5C27.6198 15.8385 28.0677 15.3229 28.6406 14.9531C29.2188 14.5781 29.8438 14.3906 30.5156 14.3906C31.6146 14.3906 32.4688 14.7526 33.0781 15.4766C33.6875 16.2005 33.9922 17.237 33.9922 18.5859V19.1875H28.2656C28.2865 20.0208 28.5286 20.6953 28.9922 21.2109C29.4609 21.7214 30.0547 21.9766 30.7734 21.9766C31.2839 21.9766 31.7161 21.8724 32.0703 21.6641C32.4245 21.4557 32.7344 21.1797 33 20.8359L33.8828 21.5234C33.1745 22.612 32.112 23.1562 30.6953 23.1562ZM30.5156 15.5781C29.9323 15.5781 29.4427 15.7917 29.0469 16.2188C28.651 16.6406 28.4062 17.2344 28.3125 18H32.5469V17.8906C32.5052 17.1562 32.3073 16.5885 31.9531 16.1875C31.599 15.7812 31.1198 15.5781 30.5156 15.5781ZM42.6016 14.5469V23H41.1484V15.7422H38.2734L38.1016 18.9062C38.0078 20.3594 37.763 21.3984 37.3672 22.0234C36.9766 22.6484 36.3542 22.974 35.5 23H34.9219V21.7266L35.3359 21.6953C35.8047 21.6432 36.1406 21.3724 36.3438 20.8828C36.5469 20.3932 36.6771 19.487 36.7344 18.1641L36.8906 14.5469H42.6016ZM44.5391 18.6953C44.5391 17.8672 44.7005 17.1224 45.0234 16.4609C45.3516 15.7995 45.8047 15.2891 46.3828 14.9297C46.9661 14.5703 47.6302 14.3906 48.375 14.3906C49.526 14.3906 50.4557 14.7891 51.1641 15.5859C51.8776 16.3828 52.2344 17.4427 52.2344 18.7656V18.8672C52.2344 19.6901 52.0755 20.4297 51.7578 21.0859C51.4453 21.737 50.9948 22.2448 50.4062 22.6094C49.8229 22.974 49.151 23.1562 48.3906 23.1562C47.2448 23.1562 46.3151 22.7578 45.6016 21.9609C44.8932 21.1641 44.5391 20.1094 44.5391 18.7969V18.6953ZM45.9922 18.8672C45.9922 19.8047 46.2083 20.5573 46.6406 21.125C47.0781 21.6927 47.6615 21.9766 48.3906 21.9766C49.125 21.9766 49.7083 21.6901 50.1406 21.1172C50.5729 20.5391 50.7891 19.7318 50.7891 18.6953C50.7891 17.7682 50.5677 17.0182 50.125 16.4453C49.6875 15.8672 49.1042 15.5781 48.375 15.5781C47.6615 15.5781 47.0859 15.862 46.6484 16.4297C46.2109 16.9974 45.9922 17.8099 45.9922 18.8672ZM57.4375 21.9766C57.9531 21.9766 58.4036 21.8203 58.7891 21.5078C59.1745 21.1953 59.388 20.8047 59.4297 20.3359H60.7969C60.7708 20.8203 60.6042 21.2812 60.2969 21.7188C59.9896 22.1562 59.5781 22.5052 59.0625 22.7656C58.5521 23.026 58.0104 23.1562 57.4375 23.1562C56.2865 23.1562 55.3698 22.7734 54.6875 22.0078C54.0104 21.237 53.6719 20.1849 53.6719 18.8516V18.6094C53.6719 17.7865 53.8229 17.0547 54.125 16.4141C54.4271 15.7734 54.8594 15.276 55.4219 14.9219C55.9896 14.5677 56.6589 14.3906 57.4297 14.3906C58.3776 14.3906 59.1641 14.6745 59.7891 15.2422C60.4193 15.8099 60.7552 16.5469 60.7969 17.4531H59.4297C59.388 16.9062 59.1797 16.4583 58.8047 16.1094C58.4349 15.7552 57.9766 15.5781 57.4297 15.5781C56.6953 15.5781 56.125 15.8438 55.7188 16.375C55.3177 16.901 55.1172 17.6641 55.1172 18.6641V18.9375C55.1172 19.9115 55.3177 20.6615 55.7188 21.1875C56.1198 21.7135 56.6927 21.9766 57.4375 21.9766ZM69.3281 23H67.8828V19.3906H64V23H62.5469V14.5469H64V18.2109H67.8828V14.5469H69.3281V23ZM75.1641 23.1562C74.0182 23.1562 73.0859 22.7812 72.3672 22.0312C71.6484 21.276 71.2891 20.2682 71.2891 19.0078V18.7422C71.2891 17.9036 71.4479 17.1562 71.7656 16.5C72.0885 15.8385 72.5365 15.3229 73.1094 14.9531C73.6875 14.5781 74.3125 14.3906 74.9844 14.3906C76.0833 14.3906 76.9375 14.7526 77.5469 15.4766C78.1562 16.2005 78.4609 17.237 78.4609 18.5859V19.1875H72.7344C72.7552 20.0208 72.9974 20.6953 73.4609 21.2109C73.9297 21.7214 74.5234 21.9766 75.2422 21.9766C75.7526 21.9766 76.1849 21.8724 76.5391 21.6641C76.8932 21.4557 77.2031 21.1797 77.4688 20.8359L78.3516 21.5234C77.6432 22.612 76.5807 23.1562 75.1641 23.1562ZM74.9844 15.5781C74.401 15.5781 73.9115 15.7917 73.5156 16.2188C73.1198 16.6406 72.875 17.2344 72.7812 18H77.0156V17.8906C76.974 17.1562 76.776 16.5885 76.4219 16.1875C76.0677 15.7812 75.5885 15.5781 74.9844 15.5781ZM86.8828 19.3281H85.8672V23H84.4219V19.3281H83.4062L81.0391 23H79.2109L82.2344 18.625L79.5 14.5469H81.25L83.4297 18.0469H84.4219V14.5469H85.8672V18.0469H86.8516L89.0469 14.5469H90.7969L88.0547 18.6328L91.0781 23H89.25L86.8828 19.3281ZM95.0234 19.3984H93.9688V23H92.5156V14.5469H93.9688V18.125H94.9141L97.7578 14.5469H99.5078L96.1641 18.6094L99.7891 23H97.9531L95.0234 19.3984ZM106.25 23C106.167 22.8333 106.099 22.5365 106.047 22.1094C105.375 22.8073 104.573 23.1562 103.641 23.1562C102.807 23.1562 102.122 22.9219 101.586 22.4531C101.055 21.9792 100.789 21.3802 100.789 20.6562C100.789 19.776 101.122 19.0938 101.789 18.6094C102.461 18.1198 103.404 17.875 104.617 17.875H106.023V17.2109C106.023 16.7057 105.872 16.3047 105.57 16.0078C105.268 15.7057 104.823 15.5547 104.234 15.5547C103.719 15.5547 103.286 15.6849 102.938 15.9453C102.589 16.2057 102.414 16.5208 102.414 16.8906H100.961C100.961 16.4688 101.109 16.0625 101.406 15.6719C101.708 15.276 102.115 14.9635 102.625 14.7344C103.141 14.5052 103.706 14.3906 104.32 14.3906C105.294 14.3906 106.057 14.6354 106.609 15.125C107.161 15.6094 107.448 16.2786 107.469 17.1328V21.0234C107.469 21.7995 107.568 22.4167 107.766 22.875V23H106.25ZM103.852 21.8984C104.305 21.8984 104.734 21.7812 105.141 21.5469C105.547 21.3125 105.841 21.0078 106.023 20.6328V18.8984H104.891C103.12 18.8984 102.234 19.4167 102.234 20.4531C102.234 20.9062 102.385 21.2604 102.688 21.5156C102.99 21.7708 103.378 21.8984 103.852 21.8984ZM119.172 14.5469H120.617V23H119.172V16.8359L115.273 23H113.828V14.5469H115.273V20.7188L119.172 14.5469ZM130.297 21.9766C130.812 21.9766 131.263 21.8203 131.648 21.5078C132.034 21.1953 132.247 20.8047 132.289 20.3359H133.656C133.63 20.8203 133.464 21.2812 133.156 21.7188C132.849 22.1562 132.438 22.5052 131.922 22.7656C131.411 23.026 130.87 23.1562 130.297 23.1562C129.146 23.1562 128.229 22.7734 127.547 22.0078C126.87 21.237 126.531 20.1849 126.531 18.8516V18.6094C126.531 17.7865 126.682 17.0547 126.984 16.4141C127.286 15.7734 127.719 15.276 128.281 14.9219C128.849 14.5677 129.518 14.3906 130.289 14.3906C131.237 14.3906 132.023 14.6745 132.648 15.2422C133.279 15.8099 133.615 16.5469 133.656 17.4531H132.289C132.247 16.9062 132.039 16.4583 131.664 16.1094C131.294 15.7552 130.836 15.5781 130.289 15.5781C129.555 15.5781 128.984 15.8438 128.578 16.375C128.177 16.901 127.977 17.6641 127.977 18.6641V18.9375C127.977 19.9115 128.177 20.6615 128.578 21.1875C128.979 21.7135 129.552 21.9766 130.297 21.9766ZM138.789 23.1562C137.643 23.1562 136.711 22.7812 135.992 22.0312C135.273 21.276 134.914 20.2682 134.914 19.0078V18.7422C134.914 17.9036 135.073 17.1562 135.391 16.5C135.714 15.8385 136.161 15.3229 136.734 14.9531C137.312 14.5781 137.938 14.3906 138.609 14.3906C139.708 14.3906 140.562 14.7526 141.172 15.4766C141.781 16.2005 142.086 17.237 142.086 18.5859V19.1875H136.359C136.38 20.0208 136.622 20.6953 137.086 21.2109C137.555 21.7214 138.148 21.9766 138.867 21.9766C139.378 21.9766 139.81 21.8724 140.164 21.6641C140.518 21.4557 140.828 21.1797 141.094 20.8359L141.977 21.5234C141.268 22.612 140.206 23.1562 138.789 23.1562ZM138.609 15.5781C138.026 15.5781 137.536 15.7917 137.141 16.2188C136.745 16.6406 136.5 17.2344 136.406 18H140.641V17.8906C140.599 17.1562 140.401 16.5885 140.047 16.1875C139.693 15.7812 139.214 15.5781 138.609 15.5781ZM148.633 21.0859L151.508 14.5469H153.312V23H151.867V16.8516L149.133 23H148.133L145.344 16.7188V23H143.898V14.5469H145.773L148.633 21.0859ZM157.219 17.4609H159.414C160.372 17.4714 161.13 17.7214 161.688 18.2109C162.245 18.7005 162.523 19.3646 162.523 20.2031C162.523 21.0469 162.237 21.724 161.664 22.2344C161.091 22.7448 160.32 23 159.352 23H155.773V14.5469H157.219V17.4609ZM157.219 18.6406V21.8203H159.367C159.909 21.8203 160.328 21.6823 160.625 21.4062C160.922 21.125 161.07 20.7422 161.07 20.2578C161.07 19.7891 160.924 19.4062 160.633 19.1094C160.346 18.8073 159.943 18.651 159.422 18.6406H157.219ZM173.758 15.7422H169.859V23H168.406V14.5469H173.758V15.7422ZM181.922 23H180.477V19.3906H176.594V23H175.141V14.5469H176.594V18.2109H180.477V14.5469H181.922V23ZM183.867 18.6953C183.867 17.8672 184.029 17.1224 184.352 16.4609C184.68 15.7995 185.133 15.2891 185.711 14.9297C186.294 14.5703 186.958 14.3906 187.703 14.3906C188.854 14.3906 189.784 14.7891 190.492 15.5859C191.206 16.3828 191.562 17.4427 191.562 18.7656V18.8672C191.562 19.6901 191.404 20.4297 191.086 21.0859C190.773 21.737 190.323 22.2448 189.734 22.6094C189.151 22.974 188.479 23.1562 187.719 23.1562C186.573 23.1562 185.643 22.7578 184.93 21.9609C184.221 21.1641 183.867 20.1094 183.867 18.7969V18.6953ZM185.32 18.8672C185.32 19.8047 185.536 20.5573 185.969 21.125C186.406 21.6927 186.99 21.9766 187.719 21.9766C188.453 21.9766 189.036 21.6901 189.469 21.1172C189.901 20.5391 190.117 19.7318 190.117 18.6953C190.117 17.7682 189.896 17.0182 189.453 16.4453C189.016 15.8672 188.432 15.5781 187.703 15.5781C186.99 15.5781 186.414 15.862 185.977 16.4297C185.539 16.9974 185.32 17.8099 185.32 18.8672ZM198.242 21.0859L201.117 14.5469H202.922V23H201.477V16.8516L198.742 23H197.742L194.953 16.7188V23H193.508V14.5469H195.383L198.242 21.0859ZM204.867 18.6953C204.867 17.8672 205.029 17.1224 205.352 16.4609C205.68 15.7995 206.133 15.2891 206.711 14.9297C207.294 14.5703 207.958 14.3906 208.703 14.3906C209.854 14.3906 210.784 14.7891 211.492 15.5859C212.206 16.3828 212.562 17.4427 212.562 18.7656V18.8672C212.562 19.6901 212.404 20.4297 212.086 21.0859C211.773 21.737 211.323 22.2448 210.734 22.6094C210.151 22.974 209.479 23.1562 208.719 23.1562C207.573 23.1562 206.643 22.7578 205.93 21.9609C205.221 21.1641 204.867 20.1094 204.867 18.7969V18.6953ZM206.32 18.8672C206.32 19.8047 206.536 20.5573 206.969 21.125C207.406 21.6927 207.99 21.9766 208.719 21.9766C209.453 21.9766 210.036 21.6901 210.469 21.1172C210.901 20.5391 211.117 19.7318 211.117 18.6953C211.117 17.7682 210.896 17.0182 210.453 16.4453C210.016 15.8672 209.432 15.5781 208.703 15.5781C207.99 15.5781 207.414 15.862 206.977 16.4297C206.539 16.9974 206.32 17.8099 206.32 18.8672ZM214.508 23V14.5469H217.805C218.93 14.5469 219.792 14.7448 220.391 15.1406C220.995 15.5312 221.297 16.1068 221.297 16.8672C221.297 17.2578 221.18 17.612 220.945 17.9297C220.711 18.2422 220.365 18.4818 219.906 18.6484C220.417 18.7682 220.826 19.0026 221.133 19.3516C221.445 19.7005 221.602 20.1172 221.602 20.6016C221.602 21.3776 221.315 21.9714 220.742 22.3828C220.174 22.7943 219.37 23 218.328 23H214.508ZM215.953 19.2891V21.8359H218.344C218.948 21.8359 219.398 21.724 219.695 21.5C219.997 21.276 220.148 20.9609 220.148 20.5547C220.148 19.7109 219.529 19.2891 218.289 19.2891H215.953ZM215.953 18.1328H217.82C219.174 18.1328 219.852 17.737 219.852 16.9453C219.852 16.1536 219.211 15.7448 217.93 15.7188H215.953V18.1328Z" fill="black" fill-opacity="0.8"/>
</svg>
