<svg width="154" height="36" viewBox="0 0 154 36" fill="none" xmlns="http://www.w3.org/2000/svg">
<rect width="154" height="36" rx="4" fill="white" fill-opacity="0.8"/>
<path d="M17.3203 23V11.625H21.0391C22.2734 11.625 23.2005 11.8802 23.8203 12.3906C24.4453 12.901 24.7578 13.6562 24.7578 14.6562C24.7578 15.1875 24.6068 15.6589 24.3047 16.0703C24.0026 16.4766 23.5911 16.7917 23.0703 17.0156C23.6849 17.1875 24.1693 17.5156 24.5234 18C24.8828 18.4792 25.0625 19.0521 25.0625 19.7188C25.0625 20.7396 24.7318 21.5417 24.0703 22.125C23.4089 22.7083 22.474 23 21.2656 23H17.3203ZM18.8203 17.6797V21.7734H21.2969C21.9948 21.7734 22.5443 21.5938 22.9453 21.2344C23.3516 20.8698 23.5547 20.3698 23.5547 19.7344C23.5547 18.3646 22.8099 17.6797 21.3203 17.6797H18.8203ZM18.8203 16.4766H21.0859C21.7422 16.4766 22.2656 16.3125 22.6562 15.9844C23.0521 15.6562 23.25 15.2109 23.25 14.6484C23.25 14.0234 23.0677 13.5703 22.7031 13.2891C22.3385 13.0026 21.7839 12.8594 21.0391 12.8594H18.8203V16.4766ZM30.5703 23.1562C29.4245 23.1562 28.4922 22.7812 27.7734 22.0312C27.0547 21.276 26.6953 20.2682 26.6953 19.0078V18.7422C26.6953 17.9036 26.8542 17.1562 27.1719 16.5C27.4948 15.8385 27.9427 15.3229 28.5156 14.9531C29.0938 14.5781 29.7188 14.3906 30.3906 14.3906C31.4896 14.3906 32.3438 14.7526 32.9531 15.4766C33.5625 16.2005 33.8672 17.237 33.8672 18.5859V19.1875H28.1406C28.1615 20.0208 28.4036 20.6953 28.8672 21.2109C29.3359 21.7214 29.9297 21.9766 30.6484 21.9766C31.1589 21.9766 31.5911 21.8724 31.9453 21.6641C32.2995 21.4557 32.6094 21.1797 32.875 20.8359L33.7578 21.5234C33.0495 22.612 31.987 23.1562 30.5703 23.1562ZM30.3906 15.5781C29.8073 15.5781 29.3177 15.7917 28.9219 16.2188C28.526 16.6406 28.2812 17.2344 28.1875 18H32.4219V17.8906C32.3802 17.1562 32.1823 16.5885 31.8281 16.1875C31.474 15.7812 30.9948 15.5781 30.3906 15.5781ZM38.9375 21.9766C39.4531 21.9766 39.9036 21.8203 40.2891 21.5078C40.6745 21.1953 40.888 20.8047 40.9297 20.3359H42.2969C42.2708 20.8203 42.1042 21.2812 41.7969 21.7188C41.4896 22.1562 41.0781 22.5052 40.5625 22.7656C40.0521 23.026 39.5104 23.1562 38.9375 23.1562C37.7865 23.1562 36.8698 22.7734 36.1875 22.0078C35.5104 21.237 35.1719 20.1849 35.1719 18.8516V18.6094C35.1719 17.7865 35.3229 17.0547 35.625 16.4141C35.9271 15.7734 36.3594 15.276 36.9219 14.9219C37.4896 14.5677 38.1589 14.3906 38.9297 14.3906C39.8776 14.3906 40.6641 14.6745 41.2891 15.2422C41.9193 15.8099 42.2552 16.5469 42.2969 17.4531H40.9297C40.888 16.9062 40.6797 16.4583 40.3047 16.1094C39.9349 15.7552 39.4766 15.5781 38.9297 15.5781C38.1953 15.5781 37.625 15.8438 37.2188 16.375C36.8177 16.901 36.6172 17.6641 36.6172 18.6641V18.9375C36.6172 19.9115 36.8177 20.6615 37.2188 21.1875C37.6198 21.7135 38.1927 21.9766 38.9375 21.9766ZM47.4297 23.1562C46.2839 23.1562 45.3516 22.7812 44.6328 22.0312C43.9141 21.276 43.5547 20.2682 43.5547 19.0078V18.7422C43.5547 17.9036 43.7135 17.1562 44.0312 16.5C44.3542 15.8385 44.8021 15.3229 45.375 14.9531C45.9531 14.5781 46.5781 14.3906 47.25 14.3906C48.349 14.3906 49.2031 14.7526 49.8125 15.4766C50.4219 16.2005 50.7266 17.237 50.7266 18.5859V19.1875H45C45.0208 20.0208 45.263 20.6953 45.7266 21.2109C46.1953 21.7214 46.7891 21.9766 47.5078 21.9766C48.0182 21.9766 48.4505 21.8724 48.8047 21.6641C49.1589 21.4557 49.4688 21.1797 49.7344 20.8359L50.6172 21.5234C49.9089 22.612 48.8464 23.1562 47.4297 23.1562ZM47.25 15.5781C46.6667 15.5781 46.1771 15.7917 45.7812 16.2188C45.3854 16.6406 45.1406 17.2344 45.0469 18H49.2812V17.8906C49.2396 17.1562 49.0417 16.5885 48.6875 16.1875C48.3333 15.7812 47.8542 15.5781 47.25 15.5781ZM59.3125 23H57.8672V19.3906H53.9844V23H52.5312V14.5469H53.9844V18.2109H57.8672V14.5469H59.3125V23ZM68.5469 23H67.1016V19.3906H63.2188V23H61.7656V14.5469H63.2188V18.2109H67.1016V14.5469H68.5469V23ZM76.3438 14.5469H77.7891V23H76.3438V16.8359L72.4453 23H71V14.5469H72.4453V20.7188L76.3438 14.5469ZM85.5781 14.5469H87.0234V23H85.5781V16.8359L81.6797 23H80.2344V14.5469H81.6797V20.7188L85.5781 14.5469ZM85.9688 11.4688C85.9688 12.099 85.7526 12.6068 85.3203 12.9922C84.8932 13.3724 84.3307 13.5625 83.6328 13.5625C82.9349 13.5625 82.3698 13.3698 81.9375 12.9844C81.5052 12.599 81.2891 12.0938 81.2891 11.4688H82.4688C82.4688 11.8333 82.5677 12.1198 82.7656 12.3281C82.9635 12.5312 83.2526 12.6328 83.6328 12.6328C83.9974 12.6328 84.2812 12.5312 84.4844 12.3281C84.6927 12.125 84.7969 11.8385 84.7969 11.4688H85.9688ZM93.2422 21.8203L93.7422 21.2031C94.3047 20.474 94.625 19.3802 94.7031 17.9219L94.8359 14.5469H100.281V21.8203H101.367V25.4844H99.9219V23H94.0234V25.4844H92.5781L92.5859 21.8203H93.2422ZM94.9531 21.8203H98.8359V15.8828H96.2344L96.1484 17.8984C96.0599 19.5807 95.6615 20.888 94.9531 21.8203ZM110.109 18.8672C110.109 20.1536 109.815 21.1901 109.227 21.9766C108.638 22.763 107.841 23.1562 106.836 23.1562C105.81 23.1562 105.003 22.8307 104.414 22.1797V26.25H102.969V14.5469H104.289L104.359 15.4844C104.948 14.7552 105.766 14.3906 106.812 14.3906C107.828 14.3906 108.63 14.7734 109.219 15.5391C109.812 16.3047 110.109 17.3698 110.109 18.7344V18.8672ZM108.664 18.7031C108.664 17.75 108.461 16.9974 108.055 16.4453C107.648 15.8932 107.091 15.6172 106.383 15.6172C105.508 15.6172 104.852 16.0052 104.414 16.7812V20.8203C104.846 21.5911 105.508 21.9766 106.398 21.9766C107.091 21.9766 107.641 21.7031 108.047 21.1562C108.458 20.6042 108.664 19.7865 108.664 18.7031ZM111.57 18.6953C111.57 17.8672 111.732 17.1224 112.055 16.4609C112.383 15.7995 112.836 15.2891 113.414 14.9297C113.997 14.5703 114.661 14.3906 115.406 14.3906C116.557 14.3906 117.487 14.7891 118.195 15.5859C118.909 16.3828 119.266 17.4427 119.266 18.7656V18.8672C119.266 19.6901 119.107 20.4297 118.789 21.0859C118.477 21.737 118.026 22.2448 117.438 22.6094C116.854 22.974 116.182 23.1562 115.422 23.1562C114.276 23.1562 113.346 22.7578 112.633 21.9609C111.924 21.1641 111.57 20.1094 111.57 18.7969V18.6953ZM113.023 18.8672C113.023 19.8047 113.24 20.5573 113.672 21.125C114.109 21.6927 114.693 21.9766 115.422 21.9766C116.156 21.9766 116.74 21.6901 117.172 21.1172C117.604 20.5391 117.82 19.7318 117.82 18.6953C117.82 17.7682 117.599 17.0182 117.156 16.4453C116.719 15.8672 116.135 15.5781 115.406 15.5781C114.693 15.5781 114.117 15.862 113.68 16.4297C113.242 16.9974 113.023 17.8099 113.023 18.8672ZM125.727 16.8594C125.727 16.4635 125.576 16.151 125.273 15.9219C124.971 15.6875 124.557 15.5703 124.031 15.5703C123.521 15.5703 123.094 15.7031 122.75 15.9688C122.411 16.2344 122.242 16.5469 122.242 16.9062H120.805C120.805 16.1719 121.112 15.5703 121.727 15.1016C122.341 14.6328 123.109 14.3984 124.031 14.3984C125.021 14.3984 125.792 14.612 126.344 15.0391C126.896 15.4609 127.172 16.0651 127.172 16.8516C127.172 17.2318 127.057 17.5807 126.828 17.8984C126.599 18.2161 126.273 18.4688 125.852 18.6562C126.836 18.9896 127.328 19.6458 127.328 20.625C127.328 21.401 127.029 22.0156 126.43 22.4688C125.831 22.9219 125.031 23.1484 124.031 23.1484C123.057 23.1484 122.253 22.9115 121.617 22.4375C120.987 21.9583 120.672 21.3125 120.672 20.5H122.109C122.109 20.9115 122.292 21.2656 122.656 21.5625C123.026 21.8542 123.484 22 124.031 22C124.583 22 125.029 21.8724 125.367 21.6172C125.706 21.362 125.875 21.0312 125.875 20.625C125.875 20.151 125.732 19.8125 125.445 19.6094C125.164 19.401 124.724 19.2969 124.125 19.2969H122.68V18.0781H124.25C125.234 18.0521 125.727 17.6458 125.727 16.8594ZM129.133 21.8203L129.633 21.2031C130.195 20.474 130.516 19.3802 130.594 17.9219L130.727 14.5469H136.172V21.8203H137.258V25.4844H135.812V23H129.914V25.4844H128.469L128.477 21.8203H129.133ZM130.844 21.8203H134.727V15.8828H132.125L132.039 17.8984C131.951 19.5807 131.552 20.888 130.844 21.8203Z" fill="black" fill-opacity="0.8"/>
</svg>
