<svg width="36" height="13" viewBox="0 0 36 13" fill="none" xmlns="http://www.w3.org/2000/svg">
<path d="M8.46094 12H1.00781V10.9609L4.94531 6.58594C5.52865 5.92448 5.92969 5.38802 6.14844 4.97656C6.3724 4.5599 6.48438 4.13021 6.48438 3.6875C6.48438 3.09375 6.30469 2.60677 5.94531 2.22656C5.58594 1.84635 5.10677 1.65625 4.50781 1.65625C3.78906 1.65625 3.22917 1.86198 2.82812 2.27344C2.43229 2.67969 2.23438 3.2474 2.23438 3.97656H0.789062C0.789062 2.92969 1.125 2.08333 1.79688 1.4375C2.47396 0.791667 3.3776 0.46875 4.50781 0.46875C5.5651 0.46875 6.40104 0.747396 7.01562 1.30469C7.63021 1.85677 7.9375 2.59375 7.9375 3.51562C7.9375 4.63542 7.22396 5.96875 5.79688 7.51562L2.75 10.8203H8.46094V12ZM17.125 7.14844C17.125 8.84115 16.8359 10.099 16.2578 10.9219C15.6797 11.7448 14.776 12.1562 13.5469 12.1562C12.3333 12.1562 11.4349 11.7552 10.8516 10.9531C10.2682 10.1458 9.96615 8.94271 9.94531 7.34375V5.41406C9.94531 3.74219 10.2344 2.5 10.8125 1.6875C11.3906 0.875 12.2969 0.46875 13.5312 0.46875C14.7552 0.46875 15.6562 0.861979 16.2344 1.64844C16.8125 2.42969 17.1094 3.63802 17.125 5.27344V7.14844ZM15.6797 5.17188C15.6797 3.94792 15.5078 3.05729 15.1641 2.5C14.8203 1.9375 14.276 1.65625 13.5312 1.65625C12.7917 1.65625 12.2526 1.9349 11.9141 2.49219C11.5755 3.04948 11.401 3.90625 11.3906 5.0625V7.375C11.3906 8.60417 11.5677 9.51302 11.9219 10.1016C12.2812 10.6849 12.8229 10.9766 13.5469 10.9766C14.2604 10.9766 14.7891 10.7005 15.1328 10.1484C15.4818 9.59635 15.6641 8.72656 15.6797 7.53906V5.17188ZM23.7266 12H22.2734V2.36719L19.3594 3.4375V2.125L23.5 0.570312H23.7266V12ZM35.3047 1.4375L30.5938 12H29.0781L33.7734 1.8125H27.6172V0.625H35.3047V1.4375Z" fill="white" fill-opacity="0.24"/>
</svg>
