<svg width="97" height="36" viewBox="0 0 97 36" fill="none" xmlns="http://www.w3.org/2000/svg">
<rect width="97" height="36" rx="4" fill="white" fill-opacity="0.8"/>
<path d="M24.375 12.8594H18.8906V23H17.3828V11.625H24.375V12.8594ZM24.1484 18.6953C24.1484 17.8672 24.3099 17.1224 24.6328 16.4609C24.9609 15.7995 25.4141 15.2891 25.9922 14.9297C26.5755 14.5703 27.2396 14.3906 27.9844 14.3906C29.1354 14.3906 30.0651 14.7891 30.7734 15.5859C31.487 16.3828 31.8438 17.4427 31.8438 18.7656V18.8672C31.8438 19.6901 31.6849 20.4297 31.3672 21.0859C31.0547 21.737 30.6042 22.2448 30.0156 22.6094C29.4323 22.974 28.7604 23.1562 28 23.1562C26.8542 23.1562 25.9245 22.7578 25.2109 21.9609C24.5026 21.1641 24.1484 20.1094 24.1484 18.7969V18.6953ZM25.6016 18.8672C25.6016 19.8047 25.8177 20.5573 26.25 21.125C26.6875 21.6927 27.2708 21.9766 28 21.9766C28.7344 21.9766 29.3177 21.6901 29.75 21.1172C30.1823 20.5391 30.3984 19.7318 30.3984 18.6953C30.3984 17.7682 30.1771 17.0182 29.7344 16.4453C29.2969 15.8672 28.7135 15.5781 27.9844 15.5781C27.2708 15.5781 26.6953 15.862 26.2578 16.4297C25.8203 16.9974 25.6016 17.8099 25.6016 18.8672ZM40.5703 23H39.125V15.7422H35.2344V23H33.7812V14.5469H40.5703V23ZM45.8984 18.7578H42.0859V17.5781H45.8984V18.7578ZM50.7031 21.9766C51.2188 21.9766 51.6693 21.8203 52.0547 21.5078C52.4401 21.1953 52.6536 20.8047 52.6953 20.3359H54.0625C54.0365 20.8203 53.8698 21.2812 53.5625 21.7188C53.2552 22.1562 52.8438 22.5052 52.3281 22.7656C51.8177 23.026 51.276 23.1562 50.7031 23.1562C49.5521 23.1562 48.6354 22.7734 47.9531 22.0078C47.276 21.237 46.9375 20.1849 46.9375 18.8516V18.6094C46.9375 17.7865 47.0885 17.0547 47.3906 16.4141C47.6927 15.7734 48.125 15.276 48.6875 14.9219C49.2552 14.5677 49.9245 14.3906 50.6953 14.3906C51.6432 14.3906 52.4297 14.6745 53.0547 15.2422C53.6849 15.8099 54.0208 16.5469 54.0625 17.4531H52.6953C52.6536 16.9062 52.4453 16.4583 52.0703 16.1094C51.7005 15.7552 51.2422 15.5781 50.6953 15.5781C49.9609 15.5781 49.3906 15.8438 48.9844 16.375C48.5833 16.901 48.3828 17.6641 48.3828 18.6641V18.9375C48.3828 19.9115 48.5833 20.6615 48.9844 21.1875C49.3854 21.7135 49.9583 21.9766 50.7031 21.9766ZM61.9688 15.7188H59.1328V23H57.6875V15.7188H54.9062V14.5469H61.9688V15.7188ZM62.6641 18.6953C62.6641 17.8672 62.8255 17.1224 63.1484 16.4609C63.4766 15.7995 63.9297 15.2891 64.5078 14.9297C65.0911 14.5703 65.7552 14.3906 66.5 14.3906C67.651 14.3906 68.5807 14.7891 69.2891 15.5859C70.0026 16.3828 70.3594 17.4427 70.3594 18.7656V18.8672C70.3594 19.6901 70.2005 20.4297 69.8828 21.0859C69.5703 21.737 69.1198 22.2448 68.5312 22.6094C67.9479 22.974 67.276 23.1562 66.5156 23.1562C65.3698 23.1562 64.4401 22.7578 63.7266 21.9609C63.0182 21.1641 62.6641 20.1094 62.6641 18.7969V18.6953ZM64.1172 18.8672C64.1172 19.8047 64.3333 20.5573 64.7656 21.125C65.2031 21.6927 65.7865 21.9766 66.5156 21.9766C67.25 21.9766 67.8333 21.6901 68.2656 21.1172C68.6979 20.5391 68.9141 19.7318 68.9141 18.6953C68.9141 17.7682 68.6927 17.0182 68.25 16.4453C67.8125 15.8672 67.2292 15.5781 66.5 15.5781C65.7865 15.5781 65.2109 15.862 64.7734 16.4297C64.3359 16.9974 64.1172 17.8099 64.1172 18.8672ZM79.0859 23H77.6406V15.7422H73.75V23H72.2969V14.5469H79.0859V23Z" fill="black" fill-opacity="0.8"/>
</svg>
