<svg width="122" height="16" viewBox="0 0 122 16" fill="none" xmlns="http://www.w3.org/2000/svg">
<path d="M7.25781 1.85938H1.77344V5.26562H4.60156C5.78906 5.28125 6.71615 5.58594 7.38281 6.17969C8.04948 6.77344 8.38281 7.58073 8.38281 8.60156C8.38281 9.6276 8.04688 10.4453 7.375 11.0547C6.70312 11.6641 5.78646 11.9792 4.625 12H0.265625V0.625H7.25781V1.85938ZM1.77344 6.5V10.7734H4.51562C5.26042 10.7734 5.83854 10.5755 6.25 10.1797C6.66667 9.78385 6.875 9.2526 6.875 8.58594C6.875 7.94531 6.67448 7.4401 6.27344 7.07031C5.8776 6.70052 5.3125 6.51042 4.57812 6.5H1.77344ZM9.80469 7.69531C9.80469 6.86719 9.96615 6.1224 10.2891 5.46094C10.6172 4.79948 11.0703 4.28906 11.6484 3.92969C12.2318 3.57031 12.8958 3.39062 13.6406 3.39062C14.7917 3.39062 15.7214 3.78906 16.4297 4.58594C17.1432 5.38281 17.5 6.44271 17.5 7.76562V7.86719C17.5 8.6901 17.3411 9.42969 17.0234 10.0859C16.7109 10.737 16.2604 11.2448 15.6719 11.6094C15.0885 11.974 14.4167 12.1562 13.6562 12.1562C12.5104 12.1562 11.5807 11.7578 10.8672 10.9609C10.1589 10.1641 9.80469 9.10938 9.80469 7.79688V7.69531ZM11.2578 7.86719C11.2578 8.80469 11.474 9.55729 11.9062 10.125C12.3438 10.6927 12.9271 10.9766 13.6562 10.9766C14.3906 10.9766 14.974 10.6901 15.4062 10.1172C15.8385 9.53906 16.0547 8.73177 16.0547 7.69531C16.0547 6.76823 15.8333 6.01823 15.3906 5.44531C14.9531 4.86719 14.3698 4.57812 13.6406 4.57812C12.9271 4.57812 12.3516 4.86198 11.9141 5.42969C11.4766 5.9974 11.2578 6.8099 11.2578 7.86719ZM22.8203 12.1562C21.6745 12.1562 20.7422 11.7812 20.0234 11.0312C19.3047 10.276 18.9453 9.26823 18.9453 8.00781V7.74219C18.9453 6.90365 19.1042 6.15625 19.4219 5.5C19.7448 4.83854 20.1927 4.32292 20.7656 3.95312C21.3438 3.57812 21.9688 3.39062 22.6406 3.39062C23.7396 3.39062 24.5938 3.7526 25.2031 4.47656C25.8125 5.20052 26.1172 6.23698 26.1172 7.58594V8.1875H20.3906C20.4115 9.02083 20.6536 9.69531 21.1172 10.2109C21.5859 10.7214 22.1797 10.9766 22.8984 10.9766C23.4089 10.9766 23.8411 10.8724 24.1953 10.6641C24.5495 10.4557 24.8594 10.1797 25.125 9.83594L26.0078 10.5234C25.2995 11.612 24.237 12.1562 22.8203 12.1562ZM22.6406 4.57812C22.0573 4.57812 21.5677 4.79167 21.1719 5.21875C20.776 5.64062 20.5312 6.23438 20.4375 7H24.6719V6.89062C24.6302 6.15625 24.4323 5.58854 24.0781 5.1875C23.724 4.78125 23.2448 4.57812 22.6406 4.57812ZM27.9297 12V3.54688H31.2266C32.3516 3.54688 33.2135 3.74479 33.8125 4.14062C34.4167 4.53125 34.7188 5.10677 34.7188 5.86719C34.7188 6.25781 34.6016 6.61198 34.3672 6.92969C34.1328 7.24219 33.7865 7.48177 33.3281 7.64844C33.8385 7.76823 34.2474 8.0026 34.5547 8.35156C34.8672 8.70052 35.0234 9.11719 35.0234 9.60156C35.0234 10.3776 34.737 10.9714 34.1641 11.3828C33.5964 11.7943 32.7917 12 31.75 12H27.9297ZM29.375 8.28906V10.8359H31.7656C32.3698 10.8359 32.8203 10.724 33.1172 10.5C33.4193 10.276 33.5703 9.96094 33.5703 9.55469C33.5703 8.71094 32.9505 8.28906 31.7109 8.28906H29.375ZM29.375 7.13281H31.2422C32.5964 7.13281 33.2734 6.73698 33.2734 5.94531C33.2734 5.15365 32.6328 4.74479 31.3516 4.71875H29.375V7.13281ZM42.4062 3.54688H43.8516V12H42.4062V5.83594L38.5078 12H37.0625V3.54688H38.5078V9.71875L42.4062 3.54688ZM48.8047 8.39844H47.75V12H46.2969V3.54688H47.75V7.125H48.6953L51.5391 3.54688H53.2891L49.9453 7.60938L53.5703 12H51.7344L48.8047 8.39844ZM54.7656 14.2656L53.9453 13.7031C54.4349 13.0208 54.6901 12.3177 54.7109 11.5938V10.2891H56.125V11.4219C56.125 11.9479 55.9948 12.474 55.7344 13C55.4792 13.526 55.1562 13.9479 54.7656 14.2656ZM68.2031 4.71875H65.3672V12H63.9219V4.71875H61.1406V3.54688H68.2031V4.71875ZM76.75 7.86719C76.75 9.15365 76.4557 10.1901 75.8672 10.9766C75.2786 11.763 74.4818 12.1562 73.4766 12.1562C72.4505 12.1562 71.6432 11.8307 71.0547 11.1797V15.25H69.6094V3.54688H70.9297L71 4.48438C71.5885 3.75521 72.4062 3.39062 73.4531 3.39062C74.4688 3.39062 75.2708 3.77344 75.8594 4.53906C76.4531 5.30469 76.75 6.36979 76.75 7.73438V7.86719ZM75.3047 7.70312C75.3047 6.75 75.1016 5.9974 74.6953 5.44531C74.2891 4.89323 73.7318 4.61719 73.0234 4.61719C72.1484 4.61719 71.4922 5.00521 71.0547 5.78125V9.82031C71.487 10.5911 72.1484 10.9766 73.0391 10.9766C73.7318 10.9766 74.2812 10.7031 74.6875 10.1562C75.099 9.60417 75.3047 8.78646 75.3047 7.70312ZM84.0625 3.54688H85.5078V12H84.0625V5.83594L80.1641 12H78.7188V3.54688H80.1641V9.71875L84.0625 3.54688ZM94.7578 3.54688V12H93.3047V4.74219H90.4297L90.2578 7.90625C90.1641 9.35938 89.9193 10.3984 89.5234 11.0234C89.1328 11.6484 88.5104 11.974 87.6562 12H87.0781V10.7266L87.4922 10.6953C87.9609 10.6432 88.2969 10.3724 88.5 9.88281C88.7031 9.39323 88.8333 8.48698 88.8906 7.16406L89.0469 3.54688H94.7578ZM104.008 3.54688V12H102.555V4.74219H99.6797L99.5078 7.90625C99.4141 9.35938 99.1693 10.3984 98.7734 11.0234C98.3828 11.6484 97.7604 11.974 96.9062 12H96.3281V10.7266L96.7422 10.6953C97.2109 10.6432 97.5469 10.3724 97.75 9.88281C97.9531 9.39323 98.0833 8.48698 98.1406 7.16406L98.2969 3.54688H104.008ZM109.836 12.1562C108.69 12.1562 107.758 11.7812 107.039 11.0312C106.32 10.276 105.961 9.26823 105.961 8.00781V7.74219C105.961 6.90365 106.12 6.15625 106.438 5.5C106.76 4.83854 107.208 4.32292 107.781 3.95312C108.359 3.57812 108.984 3.39062 109.656 3.39062C110.755 3.39062 111.609 3.7526 112.219 4.47656C112.828 5.20052 113.133 6.23698 113.133 7.58594V8.1875H107.406C107.427 9.02083 107.669 9.69531 108.133 10.2109C108.602 10.7214 109.195 10.9766 109.914 10.9766C110.424 10.9766 110.857 10.8724 111.211 10.6641C111.565 10.4557 111.875 10.1797 112.141 9.83594L113.023 10.5234C112.315 11.612 111.253 12.1562 109.836 12.1562ZM109.656 4.57812C109.073 4.57812 108.583 4.79167 108.188 5.21875C107.792 5.64062 107.547 6.23438 107.453 7H111.688V6.89062C111.646 6.15625 111.448 5.58854 111.094 5.1875C110.74 4.78125 110.26 4.57812 109.656 4.57812ZM121.953 7.86719C121.953 9.15365 121.659 10.1901 121.07 10.9766C120.482 11.763 119.685 12.1562 118.68 12.1562C117.654 12.1562 116.846 11.8307 116.258 11.1797V15.25H114.812V3.54688H116.133L116.203 4.48438C116.792 3.75521 117.609 3.39062 118.656 3.39062C119.672 3.39062 120.474 3.77344 121.062 4.53906C121.656 5.30469 121.953 6.36979 121.953 7.73438V7.86719ZM120.508 7.70312C120.508 6.75 120.305 5.9974 119.898 5.44531C119.492 4.89323 118.935 4.61719 118.227 4.61719C117.352 4.61719 116.695 5.00521 116.258 5.78125V9.82031C116.69 10.5911 117.352 10.9766 118.242 10.9766C118.935 10.9766 119.484 10.7031 119.891 10.1562C120.302 9.60417 120.508 8.78646 120.508 7.70312Z" fill="white" fill-opacity="0.24"/>
</svg>
