<svg width="198" height="36" viewBox="0 0 198 36" fill="none" xmlns="http://www.w3.org/2000/svg">
<rect width="198" height="36" rx="4" fill="white" fill-opacity="0.8"/>
<path d="M20.2734 17.8906H18.8906V23H17.3906V11.625H18.8906V16.6406H20.0625L24.0391 11.625H25.9062L21.5625 17.1406L26.2266 23H24.3906L20.2734 17.8906ZM32.5938 23C32.5104 22.8333 32.4427 22.5365 32.3906 22.1094C31.7188 22.8073 30.9167 23.1562 29.9844 23.1562C29.151 23.1562 28.4661 22.9219 27.9297 22.4531C27.3984 21.9792 27.1328 21.3802 27.1328 20.6562C27.1328 19.776 27.4661 19.0938 28.1328 18.6094C28.8047 18.1198 29.7474 17.875 30.9609 17.875H32.3672V17.2109C32.3672 16.7057 32.2161 16.3047 31.9141 16.0078C31.612 15.7057 31.1667 15.5547 30.5781 15.5547C30.0625 15.5547 29.6302 15.6849 29.2812 15.9453C28.9323 16.2057 28.7578 16.5208 28.7578 16.8906H27.3047C27.3047 16.4688 27.4531 16.0625 27.75 15.6719C28.0521 15.276 28.4583 14.9635 28.9688 14.7344C29.4844 14.5052 30.0495 14.3906 30.6641 14.3906C31.638 14.3906 32.401 14.6354 32.9531 15.125C33.5052 15.6094 33.7917 16.2786 33.8125 17.1328V21.0234C33.8125 21.7995 33.9115 22.4167 34.1094 22.875V23H32.5938ZM30.1953 21.8984C30.6484 21.8984 31.0781 21.7812 31.4844 21.5469C31.8906 21.3125 32.1849 21.0078 32.3672 20.6328V18.8984H31.2344C29.4635 18.8984 28.5781 19.4167 28.5781 20.4531C28.5781 20.9062 28.7292 21.2604 29.0312 21.5156C29.3333 21.7708 29.7214 21.8984 30.1953 21.8984ZM38.7109 19.3984H37.6562V23H36.2031V14.5469H37.6562V18.125H38.6016L41.4453 14.5469H43.1953L39.8516 18.6094L43.4766 23H41.6406L38.7109 19.3984ZM55.1484 14.5469V23H53.6953V19.7109H51.5156L49.5234 23H47.9609L50.0859 19.4922C49.5443 19.2943 49.1276 18.9896 48.8359 18.5781C48.5495 18.1615 48.4062 17.6771 48.4062 17.125C48.4062 16.3542 48.6953 15.7344 49.2734 15.2656C49.8516 14.7917 50.625 14.5521 51.5938 14.5469H55.1484ZM49.8594 17.1406C49.8594 17.5521 50 17.8854 50.2812 18.1406C50.5625 18.3906 50.9349 18.5182 51.3984 18.5234H53.6953V15.7188H51.6172C51.0807 15.7188 50.6536 15.8516 50.3359 16.1172C50.0182 16.3776 49.8594 16.7188 49.8594 17.1406ZM61.5703 23V14.5469H64.8672C65.9922 14.5469 66.8542 14.7448 67.4531 15.1406C68.0573 15.5312 68.3594 16.1068 68.3594 16.8672C68.3594 17.2578 68.2422 17.612 68.0078 17.9297C67.7734 18.2422 67.4271 18.4818 66.9688 18.6484C67.4792 18.7682 67.888 19.0026 68.1953 19.3516C68.5078 19.7005 68.6641 20.1172 68.6641 20.6016C68.6641 21.3776 68.3776 21.9714 67.8047 22.3828C67.237 22.7943 66.4323 23 65.3906 23H61.5703ZM63.0156 19.2891V21.8359H65.4062C66.0104 21.8359 66.4609 21.724 66.7578 21.5C67.0599 21.276 67.2109 20.9609 67.2109 20.5547C67.2109 19.7109 66.5911 19.2891 65.3516 19.2891H63.0156ZM63.0156 18.1328H64.8828C66.237 18.1328 66.9141 17.737 66.9141 16.9453C66.9141 16.1536 66.2734 15.7448 64.9922 15.7188H63.0156V18.1328ZM73.9688 21.9766C74.4844 21.9766 74.9349 21.8203 75.3203 21.5078C75.7057 21.1953 75.9193 20.8047 75.9609 20.3359H77.3281C77.3021 20.8203 77.1354 21.2812 76.8281 21.7188C76.5208 22.1562 76.1094 22.5052 75.5938 22.7656C75.0833 23.026 74.5417 23.1562 73.9688 23.1562C72.8177 23.1562 71.901 22.7734 71.2188 22.0078C70.5417 21.237 70.2031 20.1849 70.2031 18.8516V18.6094C70.2031 17.7865 70.3542 17.0547 70.6562 16.4141C70.9583 15.7734 71.3906 15.276 71.9531 14.9219C72.5208 14.5677 73.1901 14.3906 73.9609 14.3906C74.9089 14.3906 75.6953 14.6745 76.3203 15.2422C76.9505 15.8099 77.2865 16.5469 77.3281 17.4531H75.9609C75.9193 16.9062 75.7109 16.4583 75.3359 16.1094C74.9661 15.7552 74.5078 15.5781 73.9609 15.5781C73.2266 15.5781 72.6562 15.8438 72.25 16.375C71.849 16.901 71.6484 17.6641 71.6484 18.6641V18.9375C71.6484 19.9115 71.849 20.6615 72.25 21.1875C72.651 21.7135 73.224 21.9766 73.9688 21.9766ZM85.2344 15.7188H82.3984V23H80.9531V15.7188H78.1719V14.5469H85.2344V15.7188ZM93.7812 18.8672C93.7812 20.1536 93.487 21.1901 92.8984 21.9766C92.3099 22.763 91.513 23.1562 90.5078 23.1562C89.4818 23.1562 88.6745 22.8307 88.0859 22.1797V26.25H86.6406V14.5469H87.9609L88.0312 15.4844C88.6198 14.7552 89.4375 14.3906 90.4844 14.3906C91.5 14.3906 92.3021 14.7734 92.8906 15.5391C93.4844 16.3047 93.7812 17.3698 93.7812 18.7344V18.8672ZM92.3359 18.7031C92.3359 17.75 92.1328 16.9974 91.7266 16.4453C91.3203 15.8932 90.763 15.6172 90.0547 15.6172C89.1797 15.6172 88.5234 16.0052 88.0859 16.7812V20.8203C88.5182 21.5911 89.1797 21.9766 90.0703 21.9766C90.763 21.9766 91.3125 21.7031 91.7188 21.1562C92.1302 20.6042 92.3359 19.7865 92.3359 18.7031ZM99.1328 23.1562C97.987 23.1562 97.0547 22.7812 96.3359 22.0312C95.6172 21.276 95.2578 20.2682 95.2578 19.0078V18.7422C95.2578 17.9036 95.4167 17.1562 95.7344 16.5C96.0573 15.8385 96.5052 15.3229 97.0781 14.9531C97.6562 14.5781 98.2812 14.3906 98.9531 14.3906C100.052 14.3906 100.906 14.7526 101.516 15.4766C102.125 16.2005 102.43 17.237 102.43 18.5859V19.1875H96.7031C96.724 20.0208 96.9661 20.6953 97.4297 21.2109C97.8984 21.7214 98.4922 21.9766 99.2109 21.9766C99.7214 21.9766 100.154 21.8724 100.508 21.6641C100.862 21.4557 101.172 21.1797 101.438 20.8359L102.32 21.5234C101.612 22.612 100.549 23.1562 99.1328 23.1562ZM98.9531 15.5781C98.3698 15.5781 97.8802 15.7917 97.4844 16.2188C97.0885 16.6406 96.8438 17.2344 96.75 18H100.984V17.8906C100.943 17.1562 100.745 16.5885 100.391 16.1875C100.036 15.7812 99.5573 15.5781 98.9531 15.5781ZM110.297 15.7188H107.461V23H106.016V15.7188H103.234V14.5469H110.297V15.7188ZM117.172 14.5469H118.617V23H117.172V16.8359L113.273 23H111.828V14.5469H113.273V20.7188L117.172 14.5469ZM127.867 14.5469V23H126.414V15.7422H123.539L123.367 18.9062C123.273 20.3594 123.029 21.3984 122.633 22.0234C122.242 22.6484 121.62 22.974 120.766 23H120.188V21.7266L120.602 21.6953C121.07 21.6432 121.406 21.3724 121.609 20.8828C121.812 20.3932 121.943 19.487 122 18.1641L122.156 14.5469H127.867ZM139.023 21.0859L141.898 14.5469H143.703V23H142.258V16.8516L139.523 23H138.523L135.734 16.7188V23H134.289V14.5469H136.164L139.023 21.0859ZM151.25 23C151.167 22.8333 151.099 22.5365 151.047 22.1094C150.375 22.8073 149.573 23.1562 148.641 23.1562C147.807 23.1562 147.122 22.9219 146.586 22.4531C146.055 21.9792 145.789 21.3802 145.789 20.6562C145.789 19.776 146.122 19.0938 146.789 18.6094C147.461 18.1198 148.404 17.875 149.617 17.875H151.023V17.2109C151.023 16.7057 150.872 16.3047 150.57 16.0078C150.268 15.7057 149.823 15.5547 149.234 15.5547C148.719 15.5547 148.286 15.6849 147.938 15.9453C147.589 16.2057 147.414 16.5208 147.414 16.8906H145.961C145.961 16.4688 146.109 16.0625 146.406 15.6719C146.708 15.276 147.115 14.9635 147.625 14.7344C148.141 14.5052 148.706 14.3906 149.32 14.3906C150.294 14.3906 151.057 14.6354 151.609 15.125C152.161 15.6094 152.448 16.2786 152.469 17.1328V21.0234C152.469 21.7995 152.568 22.4167 152.766 22.875V23H151.25ZM148.852 21.8984C149.305 21.8984 149.734 21.7812 150.141 21.5469C150.547 21.3125 150.841 21.0078 151.023 20.6328V18.8984H149.891C148.12 18.8984 147.234 19.4167 147.234 20.4531C147.234 20.9062 147.385 21.2604 147.688 21.5156C147.99 21.7708 148.378 21.8984 148.852 21.8984ZM159.602 21.0859L162.477 14.5469H164.281V23H162.836V16.8516L160.102 23H159.102L156.312 16.7188V23H154.867V14.5469H156.742L159.602 21.0859ZM169.242 19.3984H168.188V23H166.734V14.5469H168.188V18.125H169.133L171.977 14.5469H173.727L170.383 18.6094L174.008 23H172.172L169.242 19.3984ZM178.016 20.8828L179.984 14.5469H181.531L178.133 24.3047C177.607 25.7109 176.771 26.4141 175.625 26.4141L175.352 26.3906L174.812 26.2891V25.1172L175.203 25.1484C175.693 25.1484 176.073 25.0495 176.344 24.8516C176.62 24.6536 176.846 24.2917 177.023 23.7656L177.344 22.9062L174.328 14.5469H175.906L178.016 20.8828Z" fill="black" fill-opacity="0.8"/>
</svg>
