<svg width="307" height="35" viewBox="0 0 307 35" fill="none" xmlns="http://www.w3.org/2000/svg">
<path d="M22.3262 27H16.1914V16.3125H7.10352V27H0.933594V1.40625H7.10352V11.5664H16.1914V1.40625H22.3262V27ZM36.6875 27C36.4766 26.6133 36.2891 26.0449 36.125 25.2949C35.0352 26.666 33.5117 27.3516 31.5547 27.3516C29.7617 27.3516 28.2383 26.8125 26.9844 25.7344C25.7305 24.6445 25.1035 23.2793 25.1035 21.6387C25.1035 19.5762 25.8652 18.0176 27.3887 16.9629C28.9121 15.9082 31.127 15.3809 34.0332 15.3809H35.8613V14.3789C35.8613 12.6328 35.1055 11.7598 33.5938 11.7598C32.1875 11.7598 31.4844 12.4512 31.4844 13.834H25.5605C25.5605 11.9941 26.3398 10.5 27.8984 9.35156C29.4688 8.20312 31.4668 7.62891 33.8926 7.62891C36.3184 7.62891 38.2344 8.2207 39.6406 9.4043C41.0469 10.5879 41.7676 12.2109 41.8027 14.2734V22.6934C41.8262 24.4395 42.0957 25.7754 42.6113 26.7012V27H36.6875ZM32.9785 23.1328C33.7168 23.1328 34.3262 22.9746 34.8066 22.6582C35.2988 22.3418 35.6504 21.9844 35.8613 21.5859V18.5449H34.1387C32.0762 18.5449 31.0449 19.4707 31.0449 21.3223C31.0449 21.8613 31.2266 22.3008 31.5898 22.6406C31.9531 22.9688 32.416 23.1328 32.9785 23.1328ZM50.9082 7.98047V22.4297H55.373V7.98047H61.3145V22.4297H65.7617V7.98047H71.7031V27H44.9844V7.98047H50.9082ZM92.1816 7.98047V27H86.2578V12.5508H82.707L82.3906 18.3691C82.168 21.252 81.5176 23.4082 80.4395 24.8379C79.3613 26.2676 77.7617 26.9883 75.6406 27H73.7773L73.707 22.4648L74.3223 22.3945C75.1074 22.3008 75.6875 21.7793 76.0625 20.8301C76.4492 19.8691 76.6953 18.4219 76.8008 16.4883L77.1699 7.98047H92.1816ZM106.473 7.98047H112.414V27H106.473V15.9258L101.252 27H95.293V7.98047H101.252V19.0195L106.473 7.98047ZM141.717 8.24414C141.717 9.48633 141.406 10.582 140.785 11.5312C140.176 12.4805 139.332 13.2422 138.254 13.8164C139.473 14.4141 140.439 15.2344 141.154 16.2773C141.869 17.3086 142.227 18.5332 142.227 19.9512C142.227 22.2363 141.436 24.041 139.854 25.3652C138.283 26.6895 136.115 27.3516 133.35 27.3516C130.572 27.3516 128.381 26.6895 126.775 25.3652C125.17 24.0293 124.367 22.2246 124.367 19.9512C124.367 18.5801 124.719 17.3672 125.422 16.3125C126.125 15.2578 127.121 14.4258 128.41 13.8164C127.32 13.2422 126.465 12.4805 125.844 11.5312C125.223 10.582 124.912 9.48633 124.912 8.24414C124.912 6.01758 125.668 4.25977 127.18 2.9707C128.691 1.68164 130.73 1.03711 133.297 1.03711C135.887 1.03711 137.938 1.68164 139.449 2.9707C140.961 4.25977 141.717 6.01758 141.717 8.24414ZM136.285 19.4766C136.285 18.4219 136.01 17.6133 135.459 17.0508C134.92 16.4766 134.205 16.1895 133.314 16.1895C132.424 16.1895 131.703 16.4766 131.152 17.0508C130.602 17.6133 130.326 18.4219 130.326 19.4766C130.326 20.4961 130.602 21.3047 131.152 21.9023C131.715 22.4883 132.447 22.7812 133.35 22.7812C134.229 22.7812 134.938 22.4883 135.477 21.9023C136.016 21.3164 136.285 20.5078 136.285 19.4766ZM133.297 5.60742C132.5 5.60742 131.891 5.87109 131.469 6.39844C131.059 6.91406 130.854 7.63477 130.854 8.56055C130.854 9.47461 131.064 10.2129 131.486 10.7754C131.908 11.3379 132.529 11.6191 133.35 11.6191C134.158 11.6191 134.762 11.3379 135.16 10.7754C135.57 10.2129 135.775 9.47461 135.775 8.56055C135.775 7.64648 135.564 6.92578 135.143 6.39844C134.732 5.87109 134.117 5.60742 133.297 5.60742ZM163.162 27H145.303V23.1328L153.529 14.4844C155.557 12.1758 156.57 10.3418 156.57 8.98242C156.57 7.88086 156.33 7.04297 155.85 6.46875C155.369 5.89453 154.672 5.60742 153.758 5.60742C152.855 5.60742 152.123 5.99414 151.561 6.76758C150.998 7.5293 150.717 8.48438 150.717 9.63281H144.775C144.775 8.0625 145.168 6.61523 145.953 5.29102C146.738 3.95508 147.828 2.91211 149.223 2.16211C150.617 1.41211 152.176 1.03711 153.898 1.03711C156.664 1.03711 158.791 1.67578 160.279 2.95312C161.779 4.23047 162.529 6.06445 162.529 8.45508C162.529 9.46289 162.342 10.4473 161.967 11.4082C161.592 12.3574 161.006 13.3594 160.209 14.4141C159.424 15.457 158.152 16.8574 156.395 18.6152L153.09 22.4297H163.162V27ZM174.482 17.5254C174.482 14.4902 175.109 12.082 176.363 10.3008C177.629 8.51953 179.363 7.62891 181.566 7.62891C182.316 7.62891 183.061 7.78125 183.799 8.08594V0H189.723V8.06836C190.402 7.77539 191.135 7.62891 191.92 7.62891C194.135 7.62891 195.869 8.52539 197.123 10.3184C198.389 12.1113 199.021 14.6367 199.021 17.8945C199.021 20.8242 198.383 23.1328 197.105 24.8203C195.84 26.5078 194.123 27.3516 191.955 27.3516C191.135 27.3516 190.391 27.2168 189.723 26.9473V34.3125H183.799V26.9297C183.061 27.2109 182.305 27.3516 181.531 27.3516C179.375 27.3516 177.658 26.5078 176.381 24.8203C175.115 23.1328 174.482 20.7832 174.482 17.7715V17.5254ZM180.406 17.8945C180.406 21.1055 181.256 22.7285 182.955 22.7637H183.412L183.799 22.7285V12.252L183.061 12.1992C181.291 12.1992 180.406 14.0977 180.406 17.8945ZM193.08 17.5254C193.08 15.8496 192.857 14.543 192.412 13.6055C191.979 12.668 191.328 12.1992 190.461 12.1992L189.723 12.252V22.7461L190.496 22.7812C192.078 22.7812 192.934 21.4277 193.062 18.7207L193.08 17.5254ZM212.68 7.98047H218.621V27H212.68V15.9258L207.459 27H201.5V7.98047H207.459V19.0195L212.68 7.98047ZM238.783 7.98047V27H232.859V12.5508H229.309L228.992 18.3691C228.77 21.252 228.119 23.4082 227.041 24.8379C225.963 26.2676 224.363 26.9883 222.242 27H220.379L220.309 22.4648L220.924 22.3945C221.709 22.3008 222.289 21.7793 222.664 20.8301C223.051 19.8691 223.297 18.4219 223.402 16.4883L223.771 7.98047H238.783ZM248.363 13.2012H251.404C253.162 13.2012 254.709 13.4883 256.045 14.0625C257.381 14.6367 258.4 15.4512 259.104 16.5059C259.807 17.5605 260.158 18.7852 260.158 20.1797C260.158 22.2305 259.361 23.8828 257.768 25.1367C256.186 26.3789 254.023 27 251.281 27H242.404V7.98047H248.363V13.2012ZM248.363 17.7539V22.4648H251.369C252.271 22.4648 252.975 22.2598 253.479 21.8496C253.994 21.4277 254.252 20.8594 254.252 20.1445C254.252 19.4414 254.023 18.8672 253.566 18.4219C253.109 17.9766 252.377 17.7539 251.369 17.7539H248.363ZM274.273 20.4609L278.58 7.98047H286.033V27H280.092V16.4531L276.26 27H272.322L268.701 17.0156V27H262.76V7.98047H270.037L274.273 20.4609ZM300.711 27C300.5 26.6133 300.312 26.0449 300.148 25.2949C299.059 26.666 297.535 27.3516 295.578 27.3516C293.785 27.3516 292.262 26.8125 291.008 25.7344C289.754 24.6445 289.127 23.2793 289.127 21.6387C289.127 19.5762 289.889 18.0176 291.412 16.9629C292.936 15.9082 295.15 15.3809 298.057 15.3809H299.885V14.3789C299.885 12.6328 299.129 11.7598 297.617 11.7598C296.211 11.7598 295.508 12.4512 295.508 13.834H289.584C289.584 11.9941 290.363 10.5 291.922 9.35156C293.492 8.20312 295.49 7.62891 297.916 7.62891C300.342 7.62891 302.258 8.2207 303.664 9.4043C305.07 10.5879 305.791 12.2109 305.826 14.2734V22.6934C305.85 24.4395 306.119 25.7754 306.635 26.7012V27H300.711ZM297.002 23.1328C297.74 23.1328 298.35 22.9746 298.83 22.6582C299.322 22.3418 299.674 21.9844 299.885 21.5859V18.5449H298.162C296.1 18.5449 295.068 19.4707 295.068 21.3223C295.068 21.8613 295.25 22.3008 295.613 22.6406C295.977 22.9688 296.439 23.1328 297.002 23.1328Z" fill="white"/>
</svg>
