<svg width="129" height="36" viewBox="0 0 129 36" fill="none" xmlns="http://www.w3.org/2000/svg">
<rect width="129" height="36" rx="4" fill="white" fill-opacity="0.8"/>
<path d="M25.1797 12.8594H21.5234V23H20.0312V12.8594H16.3828V11.625H25.1797V12.8594ZM32.9219 18.8672C32.9219 20.1536 32.6276 21.1901 32.0391 21.9766C31.4505 22.763 30.6536 23.1562 29.6484 23.1562C28.6224 23.1562 27.8151 22.8307 27.2266 22.1797V26.25H25.7812V14.5469H27.1016L27.1719 15.4844C27.7604 14.7552 28.5781 14.3906 29.625 14.3906C30.6406 14.3906 31.4427 14.7734 32.0312 15.5391C32.625 16.3047 32.9219 17.3698 32.9219 18.7344V18.8672ZM31.4766 18.7031C31.4766 17.75 31.2734 16.9974 30.8672 16.4453C30.4609 15.8932 29.9036 15.6172 29.1953 15.6172C28.3203 15.6172 27.6641 16.0052 27.2266 16.7812V20.8203C27.6589 21.5911 28.3203 21.9766 29.2109 21.9766C29.9036 21.9766 30.4531 21.7031 30.8594 21.1562C31.2708 20.6042 31.4766 19.7865 31.4766 18.7031ZM34.3828 18.6953C34.3828 17.8672 34.5443 17.1224 34.8672 16.4609C35.1953 15.7995 35.6484 15.2891 36.2266 14.9297C36.8099 14.5703 37.474 14.3906 38.2188 14.3906C39.3698 14.3906 40.2995 14.7891 41.0078 15.5859C41.7214 16.3828 42.0781 17.4427 42.0781 18.7656V18.8672C42.0781 19.6901 41.9193 20.4297 41.6016 21.0859C41.2891 21.737 40.8385 22.2448 40.25 22.6094C39.6667 22.974 38.9948 23.1562 38.2344 23.1562C37.0885 23.1562 36.1589 22.7578 35.4453 21.9609C34.737 21.1641 34.3828 20.1094 34.3828 18.7969V18.6953ZM35.8359 18.8672C35.8359 19.8047 36.0521 20.5573 36.4844 21.125C36.9219 21.6927 37.5052 21.9766 38.2344 21.9766C38.9688 21.9766 39.5521 21.6901 39.9844 21.1172C40.4167 20.5391 40.6328 19.7318 40.6328 18.6953C40.6328 17.7682 40.4115 17.0182 39.9688 16.4453C39.5312 15.8672 38.9479 15.5781 38.2188 15.5781C37.5052 15.5781 36.9297 15.862 36.4922 16.4297C36.0547 16.9974 35.8359 17.8099 35.8359 18.8672ZM47.3984 23.1562C46.2526 23.1562 45.3203 22.7812 44.6016 22.0312C43.8828 21.276 43.5234 20.2682 43.5234 19.0078V18.7422C43.5234 17.9036 43.6823 17.1562 44 16.5C44.3229 15.8385 44.7708 15.3229 45.3438 14.9531C45.9219 14.5781 46.5469 14.3906 47.2188 14.3906C48.3177 14.3906 49.1719 14.7526 49.7812 15.4766C50.3906 16.2005 50.6953 17.237 50.6953 18.5859V19.1875H44.9688C44.9896 20.0208 45.2318 20.6953 45.6953 21.2109C46.1641 21.7214 46.7578 21.9766 47.4766 21.9766C47.987 21.9766 48.4193 21.8724 48.7734 21.6641C49.1276 21.4557 49.4375 21.1797 49.7031 20.8359L50.5859 21.5234C49.8776 22.612 48.8151 23.1562 47.3984 23.1562ZM47.2188 15.5781C46.6354 15.5781 46.1458 15.7917 45.75 16.2188C45.3542 16.6406 45.1094 17.2344 45.0156 18H49.25V17.8906C49.2083 17.1562 49.0104 16.5885 48.6562 16.1875C48.3021 15.7812 47.8229 15.5781 47.2188 15.5781ZM56.4766 23V14.5469H59.7734C60.8984 14.5469 61.7604 14.7448 62.3594 15.1406C62.9635 15.5312 63.2656 16.1068 63.2656 16.8672C63.2656 17.2578 63.1484 17.612 62.9141 17.9297C62.6797 18.2422 62.3333 18.4818 61.875 18.6484C62.3854 18.7682 62.7943 19.0026 63.1016 19.3516C63.4141 19.7005 63.5703 20.1172 63.5703 20.6016C63.5703 21.3776 63.2839 21.9714 62.7109 22.3828C62.1432 22.7943 61.3385 23 60.2969 23H56.4766ZM57.9219 19.2891V21.8359H60.3125C60.9167 21.8359 61.3672 21.724 61.6641 21.5C61.9661 21.276 62.1172 20.9609 62.1172 20.5547C62.1172 19.7109 61.4974 19.2891 60.2578 19.2891H57.9219ZM57.9219 18.1328H59.7891C61.1432 18.1328 61.8203 17.737 61.8203 16.9453C61.8203 16.1536 61.1797 15.7448 59.8984 15.7188H57.9219V18.1328ZM76.3828 14.5469V23H74.9297V15.7422H72.0547L71.8828 18.9062C71.7891 20.3594 71.5443 21.3984 71.1484 22.0234C70.7578 22.6484 70.1354 22.974 69.2812 23H68.7031V21.7266L69.1172 21.6953C69.5859 21.6432 69.9219 21.3724 70.125 20.8828C70.3281 20.3932 70.4583 19.487 70.5156 18.1641L70.6719 14.5469H76.3828ZM78.3203 18.6953C78.3203 17.8672 78.4818 17.1224 78.8047 16.4609C79.1328 15.7995 79.5859 15.2891 80.1641 14.9297C80.7474 14.5703 81.4115 14.3906 82.1562 14.3906C83.3073 14.3906 84.237 14.7891 84.9453 15.5859C85.6589 16.3828 86.0156 17.4427 86.0156 18.7656V18.8672C86.0156 19.6901 85.8568 20.4297 85.5391 21.0859C85.2266 21.737 84.776 22.2448 84.1875 22.6094C83.6042 22.974 82.9323 23.1562 82.1719 23.1562C81.026 23.1562 80.0964 22.7578 79.3828 21.9609C78.6745 21.1641 78.3203 20.1094 78.3203 18.7969V18.6953ZM79.7734 18.8672C79.7734 19.8047 79.9896 20.5573 80.4219 21.125C80.8594 21.6927 81.4427 21.9766 82.1719 21.9766C82.9062 21.9766 83.4896 21.6901 83.9219 21.1172C84.3542 20.5391 84.5703 19.7318 84.5703 18.6953C84.5703 17.7682 84.349 17.0182 83.9062 16.4453C83.4688 15.8672 82.8854 15.5781 82.1562 15.5781C81.4427 15.5781 80.8672 15.862 80.4297 16.4297C79.9922 16.9974 79.7734 17.8099 79.7734 18.8672ZM87.1953 21.8203L87.6953 21.2031C88.2578 20.474 88.5781 19.3802 88.6562 17.9219L88.7891 14.5469H94.2344V21.8203H95.3203V25.4844H93.875V23H87.9766V25.4844H86.5312L86.5391 21.8203H87.1953ZM88.9062 21.8203H92.7891V15.8828H90.1875L90.1016 17.8984C90.013 19.5807 89.6146 20.888 88.9062 21.8203ZM99.5547 19.3984H98.5V23H97.0469V14.5469H98.5V18.125H99.4453L102.289 14.5469H104.039L100.695 18.6094L104.32 23H102.484L99.5547 19.3984ZM108.945 23.1562C107.799 23.1562 106.867 22.7812 106.148 22.0312C105.43 21.276 105.07 20.2682 105.07 19.0078V18.7422C105.07 17.9036 105.229 17.1562 105.547 16.5C105.87 15.8385 106.318 15.3229 106.891 14.9531C107.469 14.5781 108.094 14.3906 108.766 14.3906C109.865 14.3906 110.719 14.7526 111.328 15.4766C111.938 16.2005 112.242 17.237 112.242 18.5859V19.1875H106.516C106.536 20.0208 106.779 20.6953 107.242 21.2109C107.711 21.7214 108.305 21.9766 109.023 21.9766C109.534 21.9766 109.966 21.8724 110.32 21.6641C110.674 21.4557 110.984 21.1797 111.25 20.8359L112.133 21.5234C111.424 22.612 110.362 23.1562 108.945 23.1562ZM108.766 15.5781C108.182 15.5781 107.693 15.7917 107.297 16.2188C106.901 16.6406 106.656 17.2344 106.562 18H110.797V17.8906C110.755 17.1562 110.557 16.5885 110.203 16.1875C109.849 15.7812 109.37 15.5781 108.766 15.5781Z" fill="black" fill-opacity="0.8"/>
</svg>
