<svg width="192" height="19" viewBox="0 0 192 19" fill="none" xmlns="http://www.w3.org/2000/svg">
<path d="M4.02734 0.9375V15.1758H8.76172V0.9375H12.2891V15.1758H16.9766V0.9375H20.4922V18H0.5V0.9375H4.02734ZM34.3438 18H30.9453V8.0625H26.7031V18H23.3164V5.32031H34.3438V18ZM44.5742 5.32031H47.9609V18H44.5742V10.1719L40.332 18H36.9336V5.32031H40.332V13.1367L44.5742 5.32031ZM50.0234 11.543C50.0234 10.2852 50.2656 9.16406 50.75 8.17969C51.2344 7.19531 51.9297 6.43359 52.8359 5.89453C53.75 5.35547 54.8086 5.08594 56.0117 5.08594C57.7227 5.08594 59.1172 5.60938 60.1953 6.65625C61.2812 7.70312 61.8867 9.125 62.0117 10.9219L62.0352 11.7891C62.0352 13.7344 61.4922 15.2969 60.4062 16.4766C59.3203 17.6484 57.8633 18.2344 56.0352 18.2344C54.207 18.2344 52.7461 17.6484 51.6523 16.4766C50.5664 15.3047 50.0234 13.7109 50.0234 11.6953V11.543ZM53.4102 11.7891C53.4102 12.9922 53.6367 13.9141 54.0898 14.5547C54.543 15.1875 55.1914 15.5039 56.0352 15.5039C56.8555 15.5039 57.4961 15.1914 57.957 14.5664C58.418 13.9336 58.6484 12.9258 58.6484 11.543C58.6484 10.3633 58.418 9.44922 57.957 8.80078C57.4961 8.15234 56.8477 7.82812 56.0117 7.82812C55.1836 7.82812 54.543 8.15234 54.0898 8.80078C53.6367 9.44141 53.4102 10.4375 53.4102 11.7891ZM75.1133 18H71.7148V13.125H67.5078V18H64.1211V5.32031H67.5078V10.4062H71.7148V5.32031H75.1133V18ZM83.0117 15.5039C83.6367 15.5039 84.1445 15.332 84.5352 14.9883C84.9258 14.6445 85.1289 14.1875 85.1445 13.6172H88.3203C88.3125 14.4766 88.0781 15.2656 87.6172 15.9844C87.1562 16.6953 86.5234 17.25 85.7188 17.6484C84.9219 18.0391 84.0391 18.2344 83.0703 18.2344C81.2578 18.2344 79.8281 17.6602 78.7812 16.5117C77.7344 15.3555 77.2109 13.7617 77.2109 11.7305V11.5078C77.2109 9.55469 77.7305 7.99609 78.7695 6.83203C79.8086 5.66797 81.2344 5.08594 83.0469 5.08594C84.6328 5.08594 85.9023 5.53906 86.8555 6.44531C87.8164 7.34375 88.3047 8.54297 88.3203 10.043H85.1445C85.1289 9.38672 84.9258 8.85547 84.5352 8.44922C84.1445 8.03516 83.6289 7.82812 82.9883 7.82812C82.1992 7.82812 81.6016 8.11719 81.1953 8.69531C80.7969 9.26562 80.5977 10.1953 80.5977 11.4844V11.8359C80.5977 13.1406 80.7969 14.0781 81.1953 14.6484C81.5938 15.2188 82.1992 15.5039 83.0117 15.5039ZM95.2227 13.3242H93.8633V18H90.4766V5.32031H93.8633V10.0898H95.0703L97.8359 5.32031H102.113L97.9648 11.3555L102.5 18H97.9883L95.2227 13.3242ZM111.418 5.32031H114.805V18H111.418V10.1719L107.176 18H103.777V5.32031H107.176V13.1367L111.418 5.32031ZM125.035 5.32031H128.422V18H125.035V10.1719L120.793 18H117.395V5.32031H120.793V13.1367L125.035 5.32031ZM127.027 0.175781C127.027 1.21484 126.652 2.05469 125.902 2.69531C125.16 3.33594 124.184 3.65625 122.973 3.65625C121.762 3.65625 120.781 3.33984 120.031 2.70703C119.289 2.07422 118.918 1.23047 118.918 0.175781H121.32C121.32 0.667969 121.465 1.05078 121.754 1.32422C122.051 1.58984 122.457 1.72266 122.973 1.72266C123.48 1.72266 123.879 1.58984 124.168 1.32422C124.457 1.05078 124.602 0.667969 124.602 0.175781H127.027ZM144.711 14.0039L148.027 5.32031H152.27V18H148.883V10.2188L145.848 18H143.574L140.598 10.3477V18H137.211V5.32031H141.418L144.711 14.0039ZM154.695 11.543C154.695 10.2852 154.938 9.16406 155.422 8.17969C155.906 7.19531 156.602 6.43359 157.508 5.89453C158.422 5.35547 159.48 5.08594 160.684 5.08594C162.395 5.08594 163.789 5.60938 164.867 6.65625C165.953 7.70312 166.559 9.125 166.684 10.9219L166.707 11.7891C166.707 13.7344 166.164 15.2969 165.078 16.4766C163.992 17.6484 162.535 18.2344 160.707 18.2344C158.879 18.2344 157.418 17.6484 156.324 16.4766C155.238 15.3047 154.695 13.7109 154.695 11.6953V11.543ZM158.082 11.7891C158.082 12.9922 158.309 13.9141 158.762 14.5547C159.215 15.1875 159.863 15.5039 160.707 15.5039C161.527 15.5039 162.168 15.1914 162.629 14.5664C163.09 13.9336 163.32 12.9258 163.32 11.543C163.32 10.3633 163.09 9.44922 162.629 8.80078C162.168 8.15234 161.52 7.82812 160.684 7.82812C159.855 7.82812 159.215 8.15234 158.762 8.80078C158.309 9.44141 158.082 10.4375 158.082 11.7891ZM174.066 15.5039C174.691 15.5039 175.199 15.332 175.59 14.9883C175.98 14.6445 176.184 14.1875 176.199 13.6172H179.375C179.367 14.4766 179.133 15.2656 178.672 15.9844C178.211 16.6953 177.578 17.25 176.773 17.6484C175.977 18.0391 175.094 18.2344 174.125 18.2344C172.312 18.2344 170.883 17.6602 169.836 16.5117C168.789 15.3555 168.266 13.7617 168.266 11.7305V11.5078C168.266 9.55469 168.785 7.99609 169.824 6.83203C170.863 5.66797 172.289 5.08594 174.102 5.08594C175.688 5.08594 176.957 5.53906 177.91 6.44531C178.871 7.34375 179.359 8.54297 179.375 10.043H176.199C176.184 9.38672 175.98 8.85547 175.59 8.44922C175.199 8.03516 174.684 7.82812 174.043 7.82812C173.254 7.82812 172.656 8.11719 172.25 8.69531C171.852 9.26562 171.652 10.1953 171.652 11.4844V11.8359C171.652 13.1406 171.852 14.0781 172.25 14.6484C172.648 15.2188 173.254 15.5039 174.066 15.5039ZM191.832 8.03906H187.766V18H184.367V8.03906H180.371V5.32031H191.832V8.03906Z" fill="white" fill-opacity="0.24"/>
</svg>
